<svg xmlns="http://www.w3.org/2000/svg" viewBox="0 0 1779.45 302.42"><defs><style>.cls-1{fill:#fff;}</style></defs><title>xAsset 2</title><g id="Layer_2" data-name="Layer 2"><g id="Layer_1-2" data-name="Layer 1"><path class="cls-1" d="M480.82,224.4H351.76L328.51,277H299.87L402,45.47h28.64L532.71,277H504.07ZM470,199.46,416.46,77.82,362.54,199.46Z"/><path class="cls-1" d="M686.36,191.37l60,85.59h-30l-58.63-83.22H596.39V277H570.11V45.47h94c47.85,0,85.25,30.66,85.25,74.13C749.37,156,723.09,183.62,686.36,191.37Zm-90-22.57h63c37.74,0,63.35-18.2,63.35-49.2S697.14,70.41,659.4,70.41h-63Z"/><path class="cls-1" d="M794.18,45.47h26.29l85.92,161.41L992.32,45.47h26.28V277H992.32V102.08L906.39,263.49,820.47,102.08V277H794.18Z"/><path class="cls-1" d="M1067.79,161.05c0-65,54.59-119.62,118.61-119.62,64.36,0,118.28,54.58,118.28,119.62s-53.92,120-118.28,120C1122.38,281,1067.79,226.08,1067.79,161.05Zm210.27,0c0-51.56-41.79-95.36-91.66-95.36s-92,43.8-92,95.36c0,51.89,42.12,95.7,92,95.7S1278.06,212.94,1278.06,161.05Z"/><path class="cls-1" d="M1351.17,180.93V45.47h26.29V180.93c0,44.48,29.31,76.15,70.42,76.15s70.43-31.67,70.43-76.15V45.47h26.28V180.93c0,58.63-40.1,100.08-96.71,100.08S1351.17,239.56,1351.17,180.93Z"/><path class="cls-1" d="M1716.43,191.37l60,85.59h-30l-58.63-83.22h-61.33V277h-26.28V45.47h94c47.84,0,85.25,30.66,85.25,74.13C1779.45,156,1753.16,183.62,1716.43,191.37Zm-90-22.57h63c37.74,0,63.34-18.2,63.34-49.2s-25.6-49.19-63.34-49.19h-63Z"/><path class="cls-1" d="M258.5,67V35.62l-4.28.59c-47.52,6.54-78.14-2.42-95.46-11.1-18.67-9.36-26.31-20.39-26.38-20.49L129.27,0l-3.14,4.61c-.08.11-7.72,11.14-26.39,20.5C82.42,33.79,51.8,42.75,4.28,36.21L0,35.62V67c0,1.63-.31,40.56,15.13,89.24,9.08,28.62,21.75,54.59,37.67,77.19a235.27,235.27,0,0,0,74.56,68.54,3.77,3.77,0,0,0,1.89.5h0a3.82,3.82,0,0,0,1.89-.5,235.34,235.34,0,0,0,74.55-68.54c15.92-22.6,28.59-48.57,37.67-77.19C258.81,107.51,258.52,68.58,258.5,67ZM205,101.59l-10.64,31.73H173.69v3.39A34.72,34.72,0,0,0,192,167.26c-8.39,21.77-23.1,47.49-48.72,67.42l-9.51-153a16.3,16.3,0,0,0,6.43-3.58c9.18,5.64,23.5,11.24,44.52,11.77h.35q1.27,0,2.58,0h.77c1.23,0,2.47,0,3.74-.06h.15c1.24,0,2.51-.09,3.79-.17l.52,0q1.8-.11,3.66-.27l.52,0c1.38-.12,2.77-.26,4.2-.43Zm3.39,11.24,2.24,6.69,4.63,13.8H201.51l.18-.56Zm-70-44.35a9.46,9.46,0,0,1-2,3.81,9.58,9.58,0,0,1-2,1.76l-1,.58a9.37,9.37,0,0,1-4.06.92,9.54,9.54,0,0,1-4.06-.91c-.35-.18-.7-.38-1-.59a9.37,9.37,0,0,1-2.58-2.44,9.46,9.46,0,1,1,16.82-3.13Zm-9.15,50.37,7.5,120.6q-3.62,2.49-7.5,4.82-3.89-2.33-7.5-4.82ZM118.33,78.12a16.21,16.21,0,0,0,6.42,3.58l-9.51,153C89.62,214.75,74.92,189,66.52,167.26A34.69,34.69,0,0,0,84.8,136.71v-3.39H64.16L53.53,101.59V88.93a148.9,148.9,0,0,0,17,1C93.37,90,108.69,84.06,118.33,78.12ZM56.81,132.77l.18.55H43.26l4.63-13.8,2.24-6.69Zm21,7.34a27.93,27.93,0,0,1-13.64,20.67,27.26,27.26,0,0,1-6.26,2.71,27.91,27.91,0,0,1-35.46-23.38Zm51.44,154.18c-60.69-36.06-90.5-91.88-105-134.53a34.64,34.64,0,0,0,36,10.12c9.16,23.69,25.51,51.79,54.49,72.91a145.81,145.81,0,0,0,12.81,8.37l1.71,1,1.7-1a148.85,148.85,0,0,0,12.81-8.37c29-21.12,45.33-49.22,54.49-72.91a34.62,34.62,0,0,0,36-10.12C219.73,202.46,189.92,258.24,129.25,294.29Zm79.12-129.7a28.13,28.13,0,0,1-7.78-1.1,27,27,0,0,1-6.25-2.71,27.91,27.91,0,0,1-13.65-20.67h55.36A27.92,27.92,0,0,1,208.37,164.59ZM242,133.32H222.41l-10.64-31.73V81.18l-3.86.54h0c-1.59.22-3.18.4-4.75.57a4,4,0,0,1-.5.06c-1.44.15-2.84.27-4.22.38l-1,.07c-1.2.08-2.39.14-3.55.2l-2.13.08-2.24,0a109.71,109.71,0,0,1-20-1.56l-.52-.09-2-.38c-.7-.15-1.39-.29-2.06-.45l-.26-.06a70.92,70.92,0,0,1-20.45-8.1,16.1,16.1,0,0,0,1.32-6.4,16.26,16.26,0,0,0-32.51,0,16.1,16.1,0,0,0,1.31,6.4c-7.17,4.31-17.85,8.67-32.92,10.14l-.15,0c-1,.09-2.09.18-3.17.25l-.57,0c-1,.07-2.07.12-3.13.16h-.61c-1,0-2,0-3,0h-.54c-1.52,0-3.06,0-4.63-.08h0q-4.84-.19-9.91-.72c-1.69-.18-3.39-.39-5.11-.62l-3.86-.54v20.4L36.1,133.32H16.54c-9.21-37.66-9-66-9-66.33V44.23C54.9,50,85.87,40.61,103.66,31.58c13.44-6.84,21.56-14.43,25.59-18.9,4,4.47,12.15,12.06,25.59,18.9,17.8,9,48.77,18.39,96.12,12.65V67C251,67.37,251.19,95.62,242,133.32Z"/></g></g></svg>