<svg xmlns="http://www.w3.org/2000/svg" viewBox="0 0 1779.45 302.42"><defs><style>.cls-1{fill:#003f5b;}.cls-2{fill:none;}.cls-3{fill:#daad14;}</style></defs><title>xAsset 1</title><g id="Layer_2" data-name="Layer 2"><g id="Layer_1-2" data-name="Layer 1"><path class="cls-1" d="M480.82,224.4H351.76L328.51,277H299.87L402,45.47h28.64L532.71,277H504.07ZM470,199.46,416.46,77.82,362.54,199.46Z"/><path class="cls-1" d="M686.36,191.37l60,85.59h-30l-58.63-83.22H596.39V277H570.11V45.47h94c47.85,0,85.25,30.66,85.25,74.13C749.37,156,723.09,183.62,686.36,191.37Zm-90-22.57h63c37.74,0,63.35-18.2,63.35-49.2S697.14,70.41,659.4,70.41h-63Z"/><path class="cls-1" d="M794.18,45.47h26.29l85.92,161.41L992.32,45.47h26.28V277H992.32V102.08L906.39,263.49,820.47,102.08V277H794.18Z"/><path class="cls-1" d="M1067.79,161.05c0-65,54.59-119.62,118.61-119.62,64.36,0,118.28,54.58,118.28,119.62s-53.92,120-118.28,120C1122.38,281,1067.79,226.08,1067.79,161.05Zm210.27,0c0-51.56-41.79-95.36-91.66-95.36s-92,43.8-92,95.36c0,51.89,42.12,95.7,92,95.7S1278.06,212.94,1278.06,161.05Z"/><path class="cls-1" d="M1351.17,180.93V45.47h26.29V180.93c0,44.48,29.31,76.15,70.42,76.15s70.43-31.67,70.43-76.15V45.47h26.28V180.93c0,58.63-40.1,100.08-96.71,100.08S1351.17,239.56,1351.17,180.93Z"/><path class="cls-1" d="M1716.43,191.37l60,85.59h-30l-58.63-83.22h-61.33V277h-26.28V45.47h94c47.84,0,85.25,30.66,85.25,74.13C1779.45,156,1753.16,183.62,1716.43,191.37Zm-90-22.57h63c37.74,0,63.34-18.2,63.34-49.2s-25.6-49.19-63.34-49.19h-63Z"/><path class="cls-2" d="M70.54,90a148.9,148.9,0,0,1-17-1v12.66l10.63,31.73H84.8v3.39a34.69,34.69,0,0,1-18.28,30.55c8.4,21.77,23.1,47.49,48.72,67.42l9.51-153a16.21,16.21,0,0,1-6.42-3.58C108.69,84.06,93.37,90,70.54,90Z"/><path class="cls-2" d="M200.26,89.4q-1.86.16-3.66.27l-.52,0c-1.28.08-2.55.13-3.79.17h-.15c-1.27,0-2.51.06-3.74.06h-.77q-1.31,0-2.58,0h-.35c-21-.53-35.34-6.13-44.52-11.77a16.3,16.3,0,0,1-6.43,3.58l9.51,153C168.88,214.75,183.59,189,192,167.26a34.72,34.72,0,0,1-18.29-30.55v-3.39h20.65L205,101.59V88.93c-1.43.17-2.82.31-4.2.43Z"/><polygon class="cls-2" points="201.51 133.32 215.24 133.32 210.61 119.52 208.37 112.83 201.69 132.76 201.51 133.32"/><polygon class="cls-2" points="47.89 119.52 43.26 133.32 56.99 133.32 56.81 132.77 50.13 112.83 47.89 119.52"/><path class="cls-3" d="M50.13,164.59a28.13,28.13,0,0,0,7.78-1.1,27.26,27.26,0,0,0,6.26-2.71,27.93,27.93,0,0,0,13.64-20.67H22.45A27.92,27.92,0,0,0,50.13,164.59Z"/><path class="cls-3" d="M194.34,160.78a27,27,0,0,0,6.25,2.71,27.91,27.91,0,0,0,35.46-23.38H180.69A27.91,27.91,0,0,0,194.34,160.78Z"/><path class="cls-2" d="M208.37,171.39a34.4,34.4,0,0,1-10.11-1.51c-9.16,23.69-25.51,51.79-54.49,72.91A148.85,148.85,0,0,1,131,251.16l-1.7,1-1.71-1a145.81,145.81,0,0,1-12.81-8.37c-29-21.12-45.33-49.22-54.49-72.91a34.64,34.64,0,0,1-36-10.12c14.51,42.65,44.32,98.47,105,134.53,60.67-36.05,90.48-91.83,105-134.53A34.58,34.58,0,0,1,208.37,171.39Z"/><path class="cls-2" d="M50.13,164.59a28.13,28.13,0,0,0,7.78-1.1,27.26,27.26,0,0,0,6.26-2.71,27.93,27.93,0,0,0,13.64-20.67H22.45A27.92,27.92,0,0,0,50.13,164.59Z"/><path class="cls-2" d="M194.34,160.78a27,27,0,0,0,6.25,2.71,27.91,27.91,0,0,0,35.46-23.38H180.69A27.91,27.91,0,0,0,194.34,160.78Z"/><path class="cls-2" d="M251,44.23c-47.35,5.74-78.32-3.62-96.12-12.65-13.44-6.84-21.56-14.43-25.59-18.9-4,4.47-12.15,12.06-25.59,18.9C85.87,40.61,54.9,50,7.54,44.23V67c0,.37-.21,28.67,9,66.33H36.1l10.63-31.74V81.18l3.86.54c1.72.23,3.42.44,5.11.62q5.07.52,9.91.72h0c1.57,0,3.11.08,4.63.08h.54c1,0,2,0,3,0h.61c1.06,0,2.1-.09,3.13-.16l.57,0c1.08-.07,2.14-.16,3.17-.25l.15,0c15.07-1.47,25.75-5.83,32.92-10.14a16.1,16.1,0,0,1-1.31-6.4,16.26,16.26,0,0,1,32.51,0,16.1,16.1,0,0,1-1.32,6.4,70.92,70.92,0,0,0,20.45,8.1l.26.06c.67.16,1.36.3,2.06.45l2,.38.52.09a109.71,109.71,0,0,0,20,1.56l2.24,0,2.13-.08c1.16-.06,2.35-.12,3.55-.2l1-.07c1.38-.11,2.78-.23,4.22-.38a4,4,0,0,0,.5-.06c1.57-.17,3.16-.35,4.75-.57h0l3.86-.54v20.41l10.64,31.73H242c9.23-37.7,9-65.95,9-66.28Z"/><path class="cls-3" d="M129.25,244.27q3.88-2.33,7.5-4.82l-7.5-120.6-7.5,120.6Q125.37,241.94,129.25,244.27Z"/><path class="cls-2" d="M53.53,88.93v12.66l10.63,31.73H84.8v3.39a34.69,34.69,0,0,1-18.28,30.55c8.4,21.77,23.1,47.49,48.72,67.42l9.51-153a16.21,16.21,0,0,1-6.42-3.58C108.69,84.06,93.37,90,70.54,90A148.9,148.9,0,0,1,53.53,88.93Z"/><path class="cls-2" d="M121.75,239.45q3.61,2.49,7.5,4.82,3.88-2.33,7.5-4.82l-7.5-120.6Z"/><path class="cls-2" d="M50.13,164.59a28.13,28.13,0,0,0,7.78-1.1,27.26,27.26,0,0,0,6.26-2.71,27.93,27.93,0,0,0,13.64-20.67H22.45A27.92,27.92,0,0,0,50.13,164.59Z"/><polygon class="cls-2" points="201.51 133.32 215.24 133.32 210.61 119.52 208.37 112.83 201.69 132.76 201.51 133.32"/><path class="cls-2" d="M200.26,89.4q-1.86.16-3.66.27l-.52,0c-1.28.08-2.55.13-3.79.17h-.15c-1.27,0-2.51.06-3.74.06h-.77q-1.31,0-2.58,0h-.35c-21-.53-35.34-6.13-44.52-11.77a16.3,16.3,0,0,1-6.43,3.58l9.51,153C168.88,214.75,183.59,189,192,167.26a34.72,34.72,0,0,1-18.29-30.55v-3.39h20.65L205,101.59V88.93c-1.43.17-2.82.31-4.2.43Z"/><polygon class="cls-2" points="47.89 119.52 43.26 133.32 56.99 133.32 56.81 132.77 50.13 112.83 47.89 119.52"/><path class="cls-2" d="M251,44.23c-47.35,5.74-78.32-3.62-96.12-12.65-13.44-6.84-21.56-14.43-25.59-18.9-4,4.47-12.15,12.06-25.59,18.9C85.87,40.61,54.9,50,7.54,44.23V67c0,.37-.21,28.67,9,66.33H36.1l10.63-31.74V81.18l3.86.54c1.72.23,3.42.44,5.11.62q5.07.52,9.91.72h0c1.57,0,3.11.08,4.63.08h.54c1,0,2,0,3,0h.61c1.06,0,2.1-.09,3.13-.16l.57,0c1.08-.07,2.14-.16,3.17-.25l.15,0c15.07-1.47,25.75-5.83,32.92-10.14a16.1,16.1,0,0,1-1.31-6.4,16.26,16.26,0,0,1,32.51,0,16.1,16.1,0,0,1-1.32,6.4,70.92,70.92,0,0,0,20.45,8.1l.26.06c.67.16,1.36.3,2.06.45l2,.38.52.09a109.71,109.71,0,0,0,20,1.56l2.24,0,2.13-.08c1.16-.06,2.35-.12,3.55-.2l1-.07c1.38-.11,2.78-.23,4.22-.38a4,4,0,0,0,.5-.06c1.57-.17,3.16-.35,4.75-.57h0l3.86-.54v20.41l10.64,31.73H242c9.23-37.7,9-65.95,9-66.28Z"/><path class="cls-2" d="M208.37,171.39a34.4,34.4,0,0,1-10.11-1.51c-9.16,23.69-25.51,51.79-54.49,72.91A148.85,148.85,0,0,1,131,251.16l-1.7,1-1.71-1a145.81,145.81,0,0,1-12.81-8.37c-29-21.12-45.33-49.22-54.49-72.91a34.64,34.64,0,0,1-36-10.12c14.51,42.65,44.32,98.47,105,134.53,60.67-36.05,90.48-91.83,105-134.53A34.58,34.58,0,0,1,208.37,171.39Z"/><path class="cls-2" d="M194.34,160.78a27,27,0,0,0,6.25,2.71,27.91,27.91,0,0,0,35.46-23.38H180.69A27.91,27.91,0,0,0,194.34,160.78Z"/><path class="cls-3" d="M129.25,56.62a9.45,9.45,0,0,0-7.67,15,9.37,9.37,0,0,0,2.58,2.44c.33.21.68.41,1,.59a9.54,9.54,0,0,0,4.06.91,9.37,9.37,0,0,0,4.06-.92l1-.58a9.58,9.58,0,0,0,2-1.76,9.46,9.46,0,0,0-7.14-15.67Z"/><path class="cls-1" d="M258.5,67V35.62l-4.28.59c-47.52,6.54-78.14-2.42-95.46-11.1-18.67-9.36-26.31-20.39-26.38-20.49L129.27,0l-3.14,4.61c-.08.11-7.72,11.14-26.39,20.5C82.42,33.79,51.8,42.75,4.28,36.21L0,35.62V67c0,1.63-.31,40.56,15.13,89.24,9.08,28.62,21.75,54.59,37.67,77.19a235.27,235.27,0,0,0,74.56,68.54,3.77,3.77,0,0,0,1.89.5h0a3.82,3.82,0,0,0,1.89-.5,235.34,235.34,0,0,0,74.55-68.54c15.92-22.6,28.59-48.57,37.67-77.19C258.81,107.51,258.52,68.58,258.5,67ZM205,101.59l-10.64,31.73H173.69v3.39A34.72,34.72,0,0,0,192,167.26c-8.39,21.77-23.1,47.49-48.72,67.42l-9.51-153a16.3,16.3,0,0,0,6.43-3.58c9.18,5.64,23.5,11.24,44.52,11.77h.35q1.27,0,2.58,0h.77c1.23,0,2.47,0,3.74-.06h.15c1.24,0,2.51-.09,3.79-.17l.52,0q1.8-.11,3.66-.27l.52,0c1.38-.12,2.77-.26,4.2-.43Zm3.39,11.24,2.24,6.69,4.63,13.8H201.51l.18-.56Zm-70-44.35a9.46,9.46,0,0,1-2,3.81,9.58,9.58,0,0,1-2,1.76l-1,.58a9.37,9.37,0,0,1-4.06.92,9.54,9.54,0,0,1-4.06-.91c-.35-.18-.7-.38-1-.59a9.37,9.37,0,0,1-2.58-2.44,9.46,9.46,0,1,1,16.82-3.13Zm-9.15,50.37,7.5,120.6q-3.62,2.49-7.5,4.82-3.89-2.33-7.5-4.82ZM118.33,78.12a16.21,16.21,0,0,0,6.42,3.58l-9.51,153C89.62,214.75,74.92,189,66.52,167.26A34.69,34.69,0,0,0,84.8,136.71v-3.39H64.16L53.53,101.59V88.93a148.9,148.9,0,0,0,17,1C93.37,90,108.69,84.06,118.33,78.12ZM56.81,132.77l.18.55H43.26l4.63-13.8,2.24-6.69Zm21,7.34a27.93,27.93,0,0,1-13.64,20.67,27.26,27.26,0,0,1-6.26,2.71,27.91,27.91,0,0,1-35.46-23.38Zm51.44,154.18c-60.69-36.06-90.5-91.88-105-134.53a34.64,34.64,0,0,0,36,10.12c9.16,23.69,25.51,51.79,54.49,72.91a145.81,145.81,0,0,0,12.81,8.37l1.71,1,1.7-1a148.85,148.85,0,0,0,12.81-8.37c29-21.12,45.33-49.22,54.49-72.91a34.62,34.62,0,0,0,36-10.12C219.73,202.46,189.92,258.24,129.25,294.29Zm79.12-129.7a28.13,28.13,0,0,1-7.78-1.1,27,27,0,0,1-6.25-2.71,27.91,27.91,0,0,1-13.65-20.67h55.36A27.92,27.92,0,0,1,208.37,164.59ZM242,133.32H222.41l-10.64-31.73V81.18l-3.86.54h0c-1.59.22-3.18.4-4.75.57a4,4,0,0,1-.5.06c-1.44.15-2.84.27-4.22.38l-1,.07c-1.2.08-2.39.14-3.55.2l-2.13.08-2.24,0a109.71,109.71,0,0,1-20-1.56l-.52-.09-2-.38c-.7-.15-1.39-.29-2.06-.45l-.26-.06a70.92,70.92,0,0,1-20.45-8.1,16.1,16.1,0,0,0,1.32-6.4,16.26,16.26,0,0,0-32.51,0,16.1,16.1,0,0,0,1.31,6.4c-7.17,4.31-17.85,8.67-32.92,10.14l-.15,0c-1,.09-2.09.18-3.17.25l-.57,0c-1,.07-2.07.12-3.13.16h-.61c-1,0-2,0-3,0h-.54c-1.52,0-3.06,0-4.63-.08h0q-4.84-.19-9.91-.72c-1.69-.18-3.39-.39-5.11-.62l-3.86-.54v20.4L36.1,133.32H16.54c-9.21-37.66-9-66-9-66.33V44.23C54.9,50,85.87,40.61,103.66,31.58c13.44-6.84,21.56-14.43,25.59-18.9,4,4.47,12.15,12.06,25.59,18.9,17.8,9,48.77,18.39,96.12,12.65V67C251,67.37,251.19,95.62,242,133.32Z"/></g></g></svg>