<?xml version="1.0" encoding="UTF-8" standalone="no"?><!DOCTYPE svg PUBLIC "-//W3C//DTD SVG 1.1//EN" "http://www.w3.org/Graphics/SVG/1.1/DTD/svg11.dtd"><svg width="100%" height="100%" viewBox="0 0 100 100" version="1.1" xmlns="http://www.w3.org/2000/svg" xmlns:xlink="http://www.w3.org/1999/xlink" xml:space="preserve" xmlns:serif="http://www.serif.com/" style="fill-rule:evenodd;clip-rule:evenodd;stroke-linejoin:round;stroke-miterlimit:1.41421;"><rect id="Artboard1" x="0" y="0" width="100" height="100" style="fill:none;"/><g><path d="M63.9,25.5c-0.477,-2.318 -2.534,-3.997 -4.9,-4c-0.549,0 -1,0.451 -1,1c0,0.549 0.451,1 1,1c1.646,0 3,1.354 3,3c0,1.646 -1.354,3 -3,3c-0.549,0 -1,0.451 -1,1c0,0.549 0.451,1 1,1c2.366,-0.003 4.423,-1.682 4.9,-4l13.1,0l0,9l-54,0l0,-9l17,0c0.549,0 1,-0.451 1,-1c0,-0.549 -0.451,-1 -1,-1l-1.816,0c0.424,-1.19 1.558,-1.99 2.821,-1.99c1.643,0 2.995,1.352 2.995,2.995c0,1.643 -1.352,2.995 -2.995,2.995c-0.001,0 -0.003,0 -0.005,0c-0.549,0 -1,0.451 -1,1c0,0.549 0.451,1 1,1c2.743,-0.001 4.999,-2.257 4.999,-5c0,-2.743 -2.257,-5 -5,-5c-2.367,0 -4.426,1.681 -4.899,4l-15.1,0l0,53l58,0l0,-53l-15.1,0Zm13.1,51l-54,0l0,-38l54,0l0,38Z" style="fill:#003f5b;fill-rule:nonzero;"/><path d="M47,23.5c1.646,0 3,1.354 3,3c0,1.646 -1.354,3 -3,3c-0.549,0 -1,0.451 -1,1c0,0.549 0.451,1 1,1c2.743,0 5,-2.257 5,-5c0,-2.743 -2.257,-5 -5,-5c-0.549,0 -1,0.451 -1,1c0,0.549 0.451,1 1,1Z" style="fill:#003f5b;fill-rule:nonzero;"/><path d="M53,23.5c1.646,0 3,1.354 3,3c0,1.646 -1.354,3 -3,3c-0.549,0 -1,0.451 -1,1c0,0.549 0.451,1 1,1c2.743,0 5,-2.257 5,-5c0,-2.743 -2.257,-5 -5,-5c-0.549,0 -1,0.451 -1,1c0,0.549 0.451,1 1,1Z" style="fill:#003f5b;fill-rule:nonzero;"/><circle cx="43" cy="45.5" r="1" style="fill:#003f5b;"/><circle cx="50" cy="45.5" r="1" style="fill:#003f5b;"/><circle cx="57" cy="45.5" r="1" style="fill:#003f5b;"/><circle cx="64" cy="45.5" r="1" style="fill:#003f5b;"/><circle cx="71" cy="45.5" r="1" style="fill:#003f5b;"/><circle cx="29" cy="53.5" r="1" style="fill:#003f5b;"/><circle cx="36" cy="53.5" r="1" style="fill:#003f5b;"/><circle cx="43" cy="53.5" r="1" style="fill:#003f5b;"/><circle cx="50" cy="53.5" r="1" style="fill:#003f5b;"/><circle cx="57" cy="53.5" r="1" style="fill:#003f5b;"/><circle cx="64" cy="53.5" r="1" style="fill:#003f5b;"/><circle cx="71" cy="53.5" r="1" style="fill:#003f5b;"/><circle cx="29" cy="60.5" r="1" style="fill:#003f5b;"/><circle cx="36" cy="60.5" r="1" style="fill:#003f5b;"/><circle cx="43" cy="60.5" r="1" style="fill:#003f5b;"/><circle cx="50" cy="60.5" r="1" style="fill:#003f5b;"/><circle cx="57" cy="60.5" r="1" style="fill:#003f5b;"/><circle cx="64" cy="60.5" r="1" style="fill:#003f5b;"/><circle cx="71" cy="60.5" r="1" style="fill:#003f5b;"/><circle cx="29" cy="68.5" r="1" style="fill:#003f5b;"/><circle cx="36" cy="68.5" r="1" style="fill:#003f5b;"/><circle cx="43" cy="68.5" r="1" style="fill:#003f5b;"/><circle cx="50" cy="68.5" r="1" style="fill:#003f5b;"/><circle cx="57" cy="68.5" r="1" style="fill:#003f5b;"/></g></svg>