<?xml version="1.0" encoding="UTF-8" standalone="no"?><!DOCTYPE svg PUBLIC "-//W3C//DTD SVG 1.1//EN" "http://www.w3.org/Graphics/SVG/1.1/DTD/svg11.dtd"><svg width="100%" height="100%" viewBox="0 0 100 100" version="1.1" xmlns="http://www.w3.org/2000/svg" xmlns:xlink="http://www.w3.org/1999/xlink" xml:space="preserve" xmlns:serif="http://www.serif.com/" style="fill-rule:evenodd;clip-rule:evenodd;stroke-linejoin:round;stroke-miterlimit:1.41421;"><rect id="Artboard1" x="0" y="0" width="100" height="100" style="fill:none;"/><g><path d="M30.923,60.61c-2.742,0.003 -4.997,2.258 -5,5c0.003,2.742 2.258,4.997 5,5c2.742,-0.003 4.997,-2.258 5,-5c-0.003,-2.742 -2.258,-4.997 -5,-5Zm0,8c-1.646,0 -3,-1.354 -3,-3c0,-1.646 1.354,-3 3,-3c1.646,0 3,1.354 3,3c0,1.646 -1.354,3 -3,3Z" style="fill:#fff;fill-rule:nonzero;"/><path d="M77.923,52.61c0.119,-1.848 -0.986,-3.57 -2.715,-4.233c1.087,-0.949 1.712,-2.324 1.712,-3.767c0,-2.742 -2.255,-4.998 -4.997,-5l-14.366,0l0.729,-3.41c0.644,-3.699 0.683,-7.478 0.116,-11.19c-0.518,-3.494 -3.607,-7.4 -6.966,-7.4l-0.239,0c-1.6,0 -4.274,0.909 -4.274,7c0,8.023 -2,11.694 -3.681,13.36c-0.865,0.938 -2.048,1.523 -3.319,1.64l-1,0l0,-2l-16,0l0,38l16,0l0,-2l28,0c2.742,-0.001 4.998,-2.258 4.998,-5c0,-1.119 -0.376,-2.206 -1.067,-3.087c2.35,-0.446 4.067,-2.52 4.067,-4.912c0,-1.12 -0.376,-2.207 -1.067,-3.088c2.35,-0.448 4.066,-2.521 4.069,-4.913Zm-53,21l0,-34l12,0l0,34l-12,0Zm48,-18l-11,0c-0.549,0 -1,0.452 -1,1c0,0.549 0.451,1 1,1l8,0c1.646,0 3,1.354 3,3c0,1.646 -1.354,3 -3,3l-10,0c-0.549,0 -1,0.452 -1,1c0,0.549 0.451,1 1,1l7,0c1.646,0 3,1.354 3,3c0,1.646 -1.354,3 -3,3l-28,0l0,-30l0.969,0c1.78,-0.078 3.461,-0.847 4.682,-2.144c2.886,-2.797 4.349,-7.795 4.349,-14.856c0,-1.867 0.3,-5 2.274,-5l0.239,0c2.231,0 4.608,3.13 4.987,5.691c0.535,3.476 0.503,7.015 -0.093,10.48l-1.245,5.829l16.838,0c1.646,0 3,1.354 3,3c0,1.646 -1.354,3 -3,3l-10,0c-0.549,0 -1,0.452 -1,1c0,0.549 0.451,1 1,1l7,0c1.287,-0.008 2.574,0.056 3.854,0.193c2.611,0.387 3.146,1.407 3.146,2.807c0,1.646 -1.354,3 -3,3Z" style="fill:#fff;fill-rule:nonzero;"/></g></svg>