<?xml version="1.0" encoding="UTF-8" standalone="no"?><!DOCTYPE svg PUBLIC "-//W3C//DTD SVG 1.1//EN" "http://www.w3.org/Graphics/SVG/1.1/DTD/svg11.dtd"><svg width="100%" height="100%" viewBox="0 0 100 100" version="1.1" xmlns="http://www.w3.org/2000/svg" xmlns:xlink="http://www.w3.org/1999/xlink" xml:space="preserve" xmlns:serif="http://www.serif.com/" style="fill-rule:evenodd;clip-rule:evenodd;stroke-linejoin:round;stroke-miterlimit:1.41421;"><rect id="Artboard1" x="0" y="0" width="100" height="100" style="fill:none;"/><path d="M70.976,45.347c-0.487,-8.953 -7.926,-16.085 -16.891,-16.194c-5.482,0.038 -10.644,2.632 -13.946,7.008c-0.075,-0.039 -0.154,-0.066 -0.23,-0.1c-0.2,-0.1 -0.4,-0.187 -0.6,-0.269c-0.114,-0.045 -0.228,-0.086 -0.343,-0.126c-0.2,-0.071 -0.409,-0.134 -0.619,-0.191c-0.115,-0.031 -0.229,-0.063 -0.345,-0.089c-0.225,-0.051 -0.455,-0.09 -0.687,-0.125c-0.1,-0.015 -0.2,-0.035 -0.3,-0.046c-0.346,-0.041 -0.694,-0.061 -1.042,-0.061c-4.922,0 -8.973,4.05 -8.973,8.973c0,0.008 0,0.017 0,0.026c0,0.127 0.008,0.252 0.016,0.377c-4.252,2.405 -6.925,6.892 -7.016,11.777c0.008,7.043 5.801,12.837 12.845,12.846l24.508,0c0.1,0 0.207,-0.006 0.311,-0.014l0.062,-0.008l0.134,0.008c0.1,0.008 0.2,0.014 0.309,0.014l9.8,0c6.597,-0.006 12.023,-5.432 12.031,-12.028c-0.037,-5.486 -3.737,-10.315 -9.024,-11.778Zm-3.004,21.806l-9.8,0c-0.059,0 -0.116,-0.005 -0.174,-0.009l-0.271,-0.011l-0.2,0.011c-0.057,0 -0.115,0.009 -0.173,0.009l-24.509,0c-5.947,-0.007 -10.839,-4.899 -10.845,-10.846c0.113,-4.33 2.584,-8.269 6.433,-10.254l0.567,-0.27l0,-0.63c0,-0.127 0.008,-0.256 0.015,-0.386l0.009,-0.16l-0.012,-0.21c-0.006,-0.081 -0.012,-0.162 -0.012,-0.244c0,-0.016 0,-0.032 0,-0.048c0,-3.814 3.139,-6.953 6.953,-6.953c0.322,0 0.645,0.023 0.964,0.068c0.078,0.01 0.156,0.023 0.233,0.036c0.266,0.043 0.53,0.102 0.789,0.177c0.035,0.01 0.071,0.017 0.106,0.027c0.285,0.088 0.564,0.195 0.835,0.321c0.071,0.032 0.14,0.067 0.21,0.1c2.389,1.171 3.91,3.61 3.91,6.272c0,0.548 0.451,1 1,1c0.549,0 1,-0.452 1,-1c0,-2.649 -1.173,-5.167 -3.2,-6.871c2.949,-3.802 7.475,-6.059 12.285,-6.129c7.751,0.104 14.227,6.161 14.848,13.888c-1.362,-0.105 -2.73,-0.064 -4.083,0.124c-0.485,0.075 -0.846,0.497 -0.846,0.988c0,0.546 0.449,0.997 0.996,1c0.051,0 0.101,-0.004 0.151,-0.012c1.555,-0.2 3.129,-0.2 4.684,0c4.72,0.98 8.141,5.163 8.165,9.984c-0.007,5.498 -4.529,10.021 -10.028,10.028Z" style="fill:#fff;fill-rule:nonzero;"/></svg>