<?xml version="1.0" encoding="UTF-8" standalone="no"?><!DOCTYPE svg PUBLIC "-//W3C//DTD SVG 1.1//EN" "http://www.w3.org/Graphics/SVG/1.1/DTD/svg11.dtd"><svg width="100%" height="100%" viewBox="0 0 100 100" version="1.1" xmlns="http://www.w3.org/2000/svg" xmlns:xlink="http://www.w3.org/1999/xlink" xml:space="preserve" xmlns:serif="http://www.serif.com/" style="fill-rule:evenodd;clip-rule:evenodd;stroke-linejoin:round;stroke-miterlimit:1.41421;"><rect id="Artboard1" x="0" y="0" width="100" height="100" style="fill:none;"/><g><path d="M52.072,69.721l1.169,-5.11c-1.134,0.272 -2.286,0.459 -3.447,0.561l0,4.855c0.766,-0.046 1.527,-0.149 2.278,-0.306" style="fill:#003f5b;fill-rule:nonzero;"/><path d="M64.596,48.521c0.4,-1.6 0.624,-1.5 -0.857,-2.223l-4.278,-2.09c-0.972,-0.474 -0.9,-0.481 -1.8,0.121l-5.216,3.7c-1.324,0.888 -1.986,1.328 -2.649,1.327l0,5.972c0.918,-0.134 1.777,-0.531 2.475,-1.142l2.916,-2.058c0.492,-0.337 0.813,-0.315 1.7,0.205c0.827,0.489 1.066,0.752 0.933,1.37l-1.233,5.15l-3,12.529l-1.853,0.348c-0.638,0.124 -1.285,0.191 -1.935,0.2l0,5.154c0.795,-0.005 1.588,-0.072 2.372,-0.2l5.656,-0.979l1.334,-5.575l5.435,-21.809Z" style="fill:#003f5b;fill-rule:nonzero;"/><path d="M70.487,41.684l-8.669,-4.406c-2.364,-1.2 -3.649,-1.483 -5.889,0.054l-2.706,2.337c-0.529,-0.015 -2.705,-3.762 -2.919,-4.12c-0.214,-0.358 0.232,-0.281 1.173,-0.385c10.7,-1.2 11.139,-12.168 10.638,-12.167c-6.816,0.061 -10.471,3.014 -12.32,5.412l0,18.807c0.899,-0.142 1.735,-0.55 2.4,-1.172l4.736,-3.4c1.545,-1.012 1.428,-1.108 3.068,-0.274l5.882,2.985c1.16,0.556 1.216,0.9 0.774,2.674l-5.2,20.826l-0.024,0.056l-1.662,6.654l2.812,-0.483c1.806,-0.5 2.949,-1.315 3.652,-4.036l6.253,-24.174c0.758,-2.956 -0.282,-4.434 -2,-5.189" style="fill:#003f5b;fill-rule:nonzero;"/><rect x="49.736" y="51.258" width="0.058" height="0.059" style="fill:#003f5b;"/><path d="M49.793,49.354c-0.018,0 -0.038,0 -0.057,0c-0.641,-0.028 -1.3,-0.467 -2.582,-1.323l-5.215,-3.7c-0.9,-0.6 -0.829,-0.6 -1.8,-0.121l-4.276,2.09c-0.19,0.093 -0.352,0.172 -0.489,0.243c-0.932,0.483 -0.717,0.588 -0.369,1.98l0.683,2.737l0.015,0.059l4.029,16.139c0.169,0.7 0.3,0.933 1.4,1.126l2.576,0.492l3.966,0.756c0.679,0.138 1.37,0.205 2.063,0.2l0.152,0l0,-4.856c-0.031,0 -0.062,0.005 -0.094,0.006l-0.058,0c-0.411,0.01 -0.823,-0.021 -1.228,-0.092l-3.384,-0.679c-0.829,-0.163 -0.8,-0.092 -0.993,-0.909l-2.343,-9.792c-0.135,-0.618 0.1,-0.881 0.933,-1.371c0.881,-0.519 1.2,-0.541 1.694,-0.2l2.916,2.057c0.685,0.588 1.516,0.981 2.405,1.138c0.019,0.001 0.038,0.001 0.057,0c0.031,0 0.062,0 0.093,-0.006l0,-5.973c-0.031,0 -0.062,0.007 -0.093,0.007l-0.001,-0.008Zm0,-20.942l-0.07,0.093c-0.696,0.888 -1.243,1.883 -1.619,2.947l-0.629,0.429l-1.829,-2.356c-0.075,-0.092 -0.187,-0.146 -0.305,-0.146c-0.098,0 -0.193,0.037 -0.265,0.103c-0.072,0.066 -1.414,0.971 -1.956,1.47c-0.178,0.145 -0.281,0.362 -0.281,0.591c0,0.188 0.07,0.369 0.195,0.509c0.125,0.14 4.741,6.429 4.826,6.855c0.163,0.806 -0.139,1.1 -0.543,1.174c-0.1,0.019 -3.647,-2.747 -3.647,-2.747c-1.329,-1.056 -3.18,-1.191 -4.648,-0.339l-8.468,3.958l-1.442,0.733c-1.717,0.755 -2.757,2.233 -2,5.189l6.254,24.175c0.7,2.72 1.846,3.534 3.653,4.035l9.518,1.641l0.9,0.157c0.761,0.124 1.529,0.189 2.3,0.195l0.152,0l0,-5.157l-0.094,0l-0.057,0c-0.626,-0.012 -1.25,-0.079 -1.865,-0.2l-3.419,-0.644l-4.809,-0.9c-1.013,-0.159 -1.193,-0.575 -1.5,-1.323l-5.2,-20.827c-0.444,-1.775 -0.386,-2.117 0.773,-2.672l1.022,-0.52l4.858,-2.467c1.642,-0.834 1.525,-0.738 3.069,0.274l4.739,3.4c0.653,0.598 1.459,1.003 2.329,1.17l0.058,0c0.031,0 0.062,-0.005 0.093,-0.007l0,-18.907c-0.03,0.038 -0.064,0.077 -0.093,0.114" style="fill:#003f5b;fill-rule:nonzero;"/></g></svg>