<?xml version="1.0" encoding="UTF-8" standalone="no"?><!DOCTYPE svg PUBLIC "-//W3C//DTD SVG 1.1//EN" "http://www.w3.org/Graphics/SVG/1.1/DTD/svg11.dtd"><svg width="100%" height="100%" viewBox="0 0 100 100" version="1.1" xmlns="http://www.w3.org/2000/svg" xmlns:xlink="http://www.w3.org/1999/xlink" xml:space="preserve" xmlns:serif="http://www.serif.com/" style="fill-rule:evenodd;clip-rule:evenodd;stroke-linejoin:round;stroke-miterlimit:1.41421;"><rect id="Artboard1" x="0" y="0" width="100" height="100" style="fill:none;"/><path d="M75.014,65.389l-9.553,-4.776c-0.896,-0.445 -1.464,-1.364 -1.461,-2.365l0,-3.381c0.229,-0.28 0.47,-0.6 0.719,-0.951c1.256,-1.783 2.251,-3.736 2.954,-5.8c1.416,-0.643 2.328,-2.061 2.327,-3.616l0,-4c-0.004,-0.967 -0.36,-1.9 -1,-2.625l0,-5.319c0.194,-2.365 -0.559,-4.714 -2.092,-6.525c-2.054,-2.343 -5.387,-3.531 -9.908,-3.531c-4.521,0 -7.854,1.188 -9.908,3.53c-1.164,1.35 -1.885,3.026 -2.064,4.8c-1.873,-0.921 -3.941,-1.378 -6.028,-1.33c-10.389,0 -10.994,8.855 -11,9l0,4.579c-0.614,0.623 -0.971,1.456 -1,2.33l0,3.454c0,1.071 0.481,2.087 1.311,2.765c0.693,2.357 1.943,4.512 3.644,6.285l0,2.743c-0.005,0.805 -0.457,1.544 -1.171,1.915l-6.653,4.173c-2.543,1.386 -4.131,4.06 -4.131,6.956l0,3.8l60,0l0,-4.043c0.011,-3.414 -1.927,-6.551 -4.986,-8.068Zm-41.014,7.873l0,2.238l-12,0l0,-1.8c0.006,-2.185 1.215,-4.198 3.141,-5.23l6.652,-4.17c1.331,-0.725 2.162,-2.125 2.161,-3.641l0,-3.594l-0.318,-0.3c-1.658,-1.646 -2.854,-3.7 -3.468,-5.955l-0.091,-0.4l-0.342,-0.22c-0.454,-0.289 -0.731,-0.789 -0.735,-1.327l0,-3.454c0.057,-0.465 0.299,-0.889 0.671,-1.174l0.329,-0.3l0,-5.38c0.018,-0.287 0.539,-7.058 9,-7.058c2.121,-0.076 4.215,0.497 6,1.644l0,4.731c-0.641,0.725 -0.997,1.66 -1,2.628l0,4c0,0.3 0.033,0.6 0.1,0.893c0.027,0.116 0.081,0.222 0.118,0.334c0.047,0.17 0.106,0.337 0.176,0.5l0,0.005c0.26,0.535 0.636,1.005 1.1,1.377c0.005,0.019 0.011,0.036 0.016,0.054c0.06,0.229 0.123,0.457 0.191,0.68l0.081,0.261c0.014,0.046 0.031,0.093 0.046,0.139c0.035,0.108 0.069,0.215 0.105,0.321c0.06,0.175 0.123,0.356 0.2,0.553c0.031,0.082 0.065,0.156 0.1,0.237c0.082,0.209 0.164,0.411 0.25,0.611c0.021,0.048 0.039,0.1 0.06,0.147l0.056,0.126c0.026,0.058 0.053,0.11 0.079,0.167c0.1,0.214 0.194,0.421 0.294,0.621c0.016,0.032 0.031,0.067 0.047,0.1c0.063,0.125 0.126,0.243 0.189,0.363c0.108,0.206 0.214,0.4 0.32,0.588c0.052,0.092 0.1,0.182 0.154,0.269c0.144,0.246 0.281,0.472 0.414,0.682c0.029,0.045 0.057,0.092 0.085,0.135c0.242,0.375 0.452,0.679 0.626,0.916l0.125,0.17c0.022,0.029 0.052,0.071 0.071,0.1l0,3.309c0,0.966 -0.529,1.858 -1.377,2.32l-2.646,1.443l-0.461,-0.041l-0.188,0.4l-5.631,3.06c-2.894,1.579 -4.701,4.625 -4.7,7.922Zm44,2.238l-42,0l0,-2.238c0,-2.565 1.406,-4.934 3.659,-6.162l8.921,-4.866c1.49,-0.813 2.421,-2.381 2.42,-4.079l0,-4.018l-0.194,-0.232l-0.038,-0.045c0,0 -0.064,-0.078 -0.165,-0.21l-0.019,-0.024c-0.053,-0.069 -0.115,-0.152 -0.186,-0.251l0,-0.005c-0.149,-0.207 -0.336,-0.476 -0.544,-0.8l-0.014,-0.022c-0.1,-0.153 -0.2,-0.32 -0.308,-0.5l-0.024,-0.04c-0.226,-0.379 -0.466,-0.808 -0.7,-1.283c-0.127,-0.255 -0.254,-0.523 -0.378,-0.8c-0.017,-0.039 -0.035,-0.077 -0.052,-0.116c-0.055,-0.125 -0.11,-0.256 -0.166,-0.391l-0.06,-0.15c-0.052,-0.131 -0.1,-0.263 -0.161,-0.414c-0.1,-0.272 -0.2,-0.556 -0.29,-0.849l-0.055,-0.178c-0.006,-0.02 -0.013,-0.04 -0.019,-0.061c-0.094,-0.316 -0.184,-0.639 -0.26,-0.971l-0.091,-0.4l-0.341,-0.22c-0.577,-0.362 -0.93,-0.994 -0.935,-1.675l0,-4c0.002,-0.565 0.246,-1.102 0.67,-1.475l0.33,-0.3l0,-6.579l-0.027,-0.021c-0.078,-1.739 0.503,-3.446 1.627,-4.776c1.653,-1.891 4.481,-2.849 8.4,-2.849c3.919,0 6.727,0.951 8.386,2.828c1.176,1.404 1.759,3.214 1.623,5.041l-0.009,6.359l0.33,0.3c0.423,0.372 0.668,0.908 0.67,1.472l0,4c-0.003,0.875 -0.583,1.651 -1.422,1.9l-0.5,0.153l-0.16,0.5c-0.647,2.038 -1.603,3.965 -2.834,5.713c-0.26,0.374 -0.54,0.734 -0.837,1.079l-0.247,0.278l0,4.125c-0.006,1.757 0.992,3.371 2.566,4.152l9.553,4.776c2.382,1.181 3.891,3.623 3.881,6.281l0,2.043Z" style="fill:#003f5b;fill-rule:nonzero;"/></svg>