<svg xmlns="http://www.w3.org/2000/svg" width="17.751" height="17.75" viewBox="0 0 17.751 17.75"><defs><style>.a{fill:#6e7b88;}</style></defs><path class="a" d="M1280.323,2984.374v-5.765c0-1.375-.023-3.145-1.912-3.145-1.913,0-2.206,1.5-2.206,3.046v5.865h-3.677v-11.857h3.529v1.622h.05a3.862,3.862,0,0,1,3.48-1.914c3.725,0,4.414,2.455,4.414,5.647v6.5Zm-13.782,0v-11.857h3.679v11.857Zm-.292-15.612a2.132,2.132,0,1,1,2.131,2.135A2.134,2.134,0,0,1,1266.25,2968.762Z" transform="translate(-1266.25 -2966.624)"/></svg>