<?xml version="1.0" encoding="UTF-8" standalone="no"?><!DOCTYPE svg PUBLIC "-//W3C//DTD SVG 1.1//EN" "http://www.w3.org/Graphics/SVG/1.1/DTD/svg11.dtd"><svg width="100%" height="100%" viewBox="0 0 130 160" version="1.1" xmlns="http://www.w3.org/2000/svg" xmlns:xlink="http://www.w3.org/1999/xlink" xml:space="preserve" xmlns:serif="http://www.serif.com/" style="fill-rule:evenodd;clip-rule:evenodd;"><rect id="Artboard1" x="0" y="0" width="130" height="160" style="fill:none;"/><clipPath id="_clip1"><rect x="0" y="0" width="130" height="160"/></clipPath><g clip-path="url(#_clip1)"><g><g><path d="M65.003,147.568c-8.514,-4.771 -16.258,-11.467 -23.022,-19.907c-6.252,-7.8 -11.652,-17.058 -16.051,-27.517c-4.052,-9.635 -7.176,-20.078 -9.286,-31.04c-1.95,-10.133 -2.955,-20.251 -2.987,-30.085c20.631,-0.143 40.2,-9.057 51.346,-23.379c11.146,14.322 30.715,23.236 51.346,23.379c-0.033,9.834 -1.037,19.952 -2.987,30.085c-2.11,10.962 -5.234,21.405 -9.287,31.04c-4.398,10.459 -9.798,19.717 -16.05,27.517c-6.765,8.44 -14.509,15.136 -23.022,19.907Z" style="fill:#fff;fill-rule:nonzero;"/><path d="M65.003,16.447c-11.21,14.033 -30.486,22.788 -50.844,23.066c0.064,9.647 1.065,19.565 2.976,29.496c2.103,10.928 5.218,21.338 9.256,30.941c4.381,10.416 9.757,19.634 15.98,27.398c6.659,8.309 14.271,14.916 22.632,19.646c8.361,-4.73 15.972,-11.337 22.632,-19.646c6.222,-7.764 11.599,-16.982 15.98,-27.398c4.038,-9.603 7.152,-20.013 9.256,-30.941c1.911,-9.931 2.911,-19.849 2.976,-29.496c-20.358,-0.278 -39.634,-9.033 -50.844,-23.066m0,-1.628c11.665,15.406 32.404,23.701 51.847,23.701c0,38.833 -15.554,89.474 -51.847,109.62c-36.293,-20.146 -51.847,-70.787 -51.847,-109.62c19.442,0 40.181,-8.295 51.847,-23.701Z" style="fill:#fff;fill-rule:nonzero;"/></g><path d="M61.407,155.033c-38.448,-21.343 -55.658,-73.686 -55.658,-116.094l0,-7.406l7.407,0c18.356,0 36.39,-8.151 45.942,-20.767l5.9,-7.8l5.905,7.8c9.552,12.616 27.586,20.767 45.942,20.767l7.406,0l0,7.407c0,42.408 -17.21,94.75 -55.659,116.093l-3.6,2l-3.585,-2Z" style="fill:none;stroke:#fff;stroke-width:3px;"/><g><path d="M80.384,56.428c-3.846,1.117 -7.2,3.51 -9.508,6.782c-0.12,0.155 -0.163,0.357 -0.115,0.548c0.391,0.906 0.281,1.955 -0.291,2.761c-0.662,0.646 -1.62,0.896 -2.514,0.657l-0.878,-0.13l0.025,-0.888c0.045,-1.607 -0.351,-1.995 -0.474,-2.076c-0.3,-0.2 -1.019,-0.071 -1.912,0.344l-0.147,0.068l-0.607,0.069c-0.47,0.038 -0.938,0.105 -1.4,0.2c-0.021,0.143 -0.034,0.288 -0.038,0.434c-0.003,0.395 0.204,0.765 0.542,0.971c0.172,0.129 0.406,0.144 0.594,0.04l0.682,-0.401l0.607,0.555c0.13,0.13 0.221,0.293 0.263,0.471c0.7,-0.065 1.395,0.18 1.9,0.668c0.326,0.401 0.408,0.95 0.214,1.428c-0.046,0.104 -0.046,0.222 0,0.325c0.027,0.062 0.079,0.11 0.143,0.131c0.979,0.214 1.759,0.962 2.012,1.931c0.078,0.398 0.345,0.734 0.715,0.9c0.334,0.079 0.686,-0.01 0.943,-0.238c1.537,-1.157 2.9,-0.5 4,0.034c0.689,0.378 1.437,0.637 2.213,0.765c0.578,0.059 1.119,0.316 1.53,0.727c0.896,1.012 1.673,2.123 2.316,3.311c0.809,1.375 1.506,2.562 2.5,3.077c2.756,1.433 1.2,5.508 0.174,8.2c-0.156,0.41 -0.3,0.782 -0.406,1.1c-0.08,0.231 -0.229,0.432 -0.427,0.575c-1.226,0.973 -2.275,2.15 -3.1,3.479c-0.914,1.418 -2.013,2.707 -3.27,3.832c-1.79,1.634 -3.882,2.904 -6.157,3.739c-0.276,0.099 -0.566,0.149 -0.859,0.149c-0.745,0.001 -1.453,-0.329 -1.933,-0.9c-0.681,-0.795 -0.792,-1.938 -0.279,-2.851c3.128,-5.6 2.69,-7.682 1.772,-8.442c-3.577,-2.971 -4.887,-7.35 -3.334,-11.159c0.143,-0.351 -0.135,-0.691 -0.453,-0.86c-0.978,-0.517 -1.124,-1.612 -1.253,-2.578c-0.035,-0.682 -0.222,-1.347 -0.547,-1.948c-0.081,-0.082 -0.173,-0.152 -0.273,-0.209c-0.933,-0.406 -1.924,-0.659 -2.937,-0.752c-1.041,-0.114 -2.066,-0.349 -3.053,-0.7c-4.093,-1.573 -6.541,-7.153 -8.508,-11.639c-0.188,-0.428 -0.369,-0.837 -0.546,-1.235c-6.962,5.284 -11.06,13.536 -11.061,22.275c0.018,15.354 12.646,27.983 28,28c15.354,-0.017 27.982,-12.646 28,-28c-0.005,-9.514 -4.86,-18.398 -12.865,-23.54Z" style="fill:url(#_Linear2);fill-rule:nonzero;"/><path d="M82.256,55.274l0.049,-0.032l-1.323,-0.816c-0.078,-0.048 -0.16,-0.088 -0.238,-0.136c-0.434,-0.262 -0.875,-0.514 -1.323,-0.754c-0.227,-0.122 -0.457,-0.237 -0.687,-0.353c-0.337,-0.171 -0.678,-0.334 -1.022,-0.492c-0.2,-0.093 -0.405,-0.188 -0.609,-0.276c-0.533,-0.232 -1.075,-0.448 -1.626,-0.648c-0.113,-0.041 -0.228,-0.076 -0.342,-0.116c-0.481,-0.168 -0.967,-0.324 -1.459,-0.468c-0.157,-0.046 -0.314,-0.091 -0.472,-0.134c-0.544,-0.15 -1.094,-0.287 -1.65,-0.406c-0.053,-0.011 -0.1,-0.025 -0.157,-0.036c-0.615,-0.129 -1.237,-0.235 -1.865,-0.325c-0.138,-0.02 -0.278,-0.035 -0.416,-0.053c-0.491,-0.063 -0.985,-0.114 -1.483,-0.154c-0.168,-0.013 -0.335,-0.028 -0.5,-0.038c-0.623,-0.042 -1.249,-0.068 -1.881,-0.068c-0.683,0 -1.358,0.031 -2.03,0.076c-0.176,0.012 -0.351,0.025 -0.527,0.04c-0.631,0.053 -1.258,0.121 -1.878,0.214l-0.186,0.026c-0.624,0.1 -1.24,0.219 -1.85,0.354c-0.2,0.044 -0.4,0.09 -0.6,0.14c-0.562,0.136 -1.118,0.285 -1.667,0.452c-0.174,0.053 -0.346,0.111 -0.518,0.167c-0.492,0.16 -0.978,0.332 -1.459,0.518c-0.22,0.084 -0.44,0.17 -0.658,0.26c-0.552,0.227 -1.1,0.465 -1.633,0.724c-0.176,0.085 -0.349,0.18 -0.524,0.269c-0.418,0.212 -0.83,0.433 -1.236,0.664c-0.2,0.115 -0.4,0.229 -0.606,0.349c-0.508,0.304 -1.008,0.623 -1.5,0.955c-0.067,0.046 -0.138,0.084 -0.2,0.131l-0.545,0.378l0.005,0.022c-7.771,5.631 -12.383,14.664 -12.385,24.26c0.019,16.451 13.55,29.982 30,30c16.45,-0.018 29.981,-13.549 30,-30c-0.005,-9.86 -4.873,-19.109 -12.999,-24.694Zm-31.919,1.013c0.323,-0.204 0.65,-0.401 0.98,-0.591c0.183,-0.106 0.364,-0.215 0.55,-0.317c0.464,-0.254 0.935,-0.491 1.411,-0.717c0.206,-0.1 0.414,-0.189 0.623,-0.282c0.349,-0.155 0.7,-0.303 1.054,-0.443c0.195,-0.078 0.389,-0.159 0.587,-0.232c0.506,-0.189 1.017,-0.361 1.534,-0.517c0.189,-0.058 0.382,-0.109 0.573,-0.163c0.4,-0.114 0.804,-0.218 1.211,-0.313c0.182,-0.043 0.364,-0.088 0.547,-0.127c0.559,-0.119 1.122,-0.224 1.689,-0.308c0.129,-0.019 0.26,-0.032 0.389,-0.05c0.478,-0.067 0.959,-0.119 1.442,-0.157c0.168,-0.014 0.337,-0.027 0.506,-0.038c0.6,-0.036 1.207,-0.063 1.815,-0.063c0.529,0 1.057,0.018 1.583,0.048c0.151,0.008 0.3,0.023 0.45,0.034c0.379,0.028 0.758,0.06 1.135,0.1c0.167,0.019 0.333,0.042 0.5,0.063c0.365,0.048 0.728,0.1 1.09,0.165c0.161,0.028 0.321,0.056 0.481,0.087c0.377,0.072 0.752,0.152 1.125,0.24c0.138,0.032 0.277,0.062 0.414,0.099c0.46,0.116 0.917,0.242 1.37,0.379c0.046,0.015 0.093,0.026 0.139,0.039c0.484,0.15 0.962,0.316 1.437,0.491c0.19,0.071 0.376,0.148 0.564,0.224c0.276,0.109 0.55,0.22 0.823,0.338c0.236,0.102 0.469,0.208 0.7,0.318c0.21,0.1 0.418,0.2 0.626,0.3c0.152,0.074 0.3,0.153 0.455,0.232c-3.57,1.353 -6.653,3.745 -8.853,6.866c-0.372,0.481 -0.567,1.077 -0.551,1.686c-0.2,-0.515 -0.552,-0.956 -1.01,-1.263c-0.926,-0.608 -2.138,-0.565 -3.7,0.133l-0.285,0.032c-2.006,0.224 -3.111,0.348 -3.211,2.53c-0.037,1.128 0.541,2.192 1.508,2.776c0.237,0.143 0.495,0.251 0.764,0.319c0.031,0.102 0.077,0.2 0.137,0.29l0.4,0.557l0.643,-0.107c0.437,-0.076 0.881,-0.109 1.325,-0.1c-0.047,0.446 0.033,0.897 0.231,1.3c0.269,0.554 0.757,0.972 1.346,1.154c0.564,0.174 0.613,0.343 0.681,0.576c0.253,1.031 1.004,1.871 2,2.239c0.956,0.294 2,0.094 2.778,-0.535c0.514,-0.389 0.805,-0.308 1.928,0.235c0.882,0.473 1.839,0.794 2.828,0.948c0.122,0.005 0.24,0.047 0.338,0.122c0.789,0.9 1.474,1.887 2.04,2.943c0.924,1.573 1.8,3.06 3.3,3.839c1.175,0.611 -0.141,4.06 -0.772,5.717c-0.127,0.334 -0.246,0.645 -0.345,0.923c-1.316,1.077 -2.449,2.361 -3.356,3.8c-0.821,1.278 -1.808,2.442 -2.934,3.462c-1.605,1.47 -3.481,2.614 -5.523,3.37c-0.212,0.079 -0.452,0.013 -0.594,-0.163c-0.144,-0.161 -0.168,-0.398 -0.06,-0.584c1.973,-3.532 4.255,-8.513 1.3,-10.958c-2.9,-2.4 -3.98,-5.875 -2.764,-8.861c0.498,-1.29 -0.089,-2.764 -1.337,-3.358c-0.134,-0.353 -0.214,-0.724 -0.238,-1.1c-0.065,-0.995 -0.366,-1.959 -0.878,-2.813c-0.273,-0.372 -0.629,-0.675 -1.039,-0.886c-1.117,-0.502 -2.308,-0.817 -3.526,-0.933c-0.894,-0.097 -1.775,-0.295 -2.625,-0.589c-3.313,-1.271 -5.671,-6.646 -7.393,-10.572c-0.246,-0.562 -0.483,-1.1 -0.711,-1.606l0.355,-0.228Zm14.911,51.682c-15.354,-0.018 -27.982,-12.647 -28,-28c0.001,-8.74 4.1,-16.993 11.062,-22.275c0.177,0.4 0.358,0.807 0.546,1.235c1.967,4.486 4.415,10.066 8.508,11.636c0.987,0.35 2.012,0.585 3.053,0.7c1.013,0.092 2.004,0.345 2.937,0.752c0.1,0.056 0.192,0.126 0.273,0.209c0.325,0.6 0.512,1.265 0.547,1.948c0.129,0.966 0.275,2.061 1.253,2.578c0.318,0.169 0.6,0.509 0.453,0.86c-1.553,3.812 -0.242,8.191 3.341,11.157c0.918,0.76 1.356,2.842 -1.772,8.442c-0.513,0.912 -0.402,2.055 0.279,2.851c0.48,0.57 1.188,0.9 1.933,0.9c0.293,-0.001 0.583,-0.051 0.859,-0.149c2.275,-0.836 4.367,-2.106 6.157,-3.739c1.257,-1.126 2.356,-2.415 3.27,-3.832c0.825,-1.33 1.874,-2.507 3.1,-3.479c0.198,-0.144 0.347,-0.345 0.427,-0.575c0.108,-0.316 0.25,-0.688 0.406,-1.1c1.028,-2.7 2.582,-6.771 -0.174,-8.2c-0.991,-0.515 -1.688,-1.7 -2.5,-3.077c-0.643,-1.189 -1.42,-2.3 -2.316,-3.311c-0.411,-0.412 -0.952,-0.669 -1.53,-0.727c-0.776,-0.129 -1.524,-0.388 -2.213,-0.765c-1.1,-0.531 -2.464,-1.191 -4,-0.034c-0.257,0.227 -0.609,0.316 -0.943,0.238c-0.37,-0.167 -0.637,-0.503 -0.715,-0.9c-0.253,-0.97 -1.033,-1.718 -2.012,-1.931c-0.064,-0.022 -0.116,-0.07 -0.143,-0.131c-0.046,-0.104 -0.046,-0.222 0,-0.325c0.194,-0.479 0.112,-1.028 -0.214,-1.428c-0.505,-0.489 -1.2,-0.734 -1.9,-0.668c-0.042,-0.179 -0.133,-0.342 -0.263,-0.471l-0.607,-0.555l-0.682,0.4c-0.188,0.104 -0.422,0.089 -0.594,-0.04c-0.338,-0.206 -0.545,-0.576 -0.542,-0.971c0.004,-0.146 0.017,-0.291 0.038,-0.434c0.462,-0.095 0.93,-0.162 1.4,-0.2l0.607,-0.069l0.147,-0.068c0.893,-0.415 1.608,-0.541 1.912,-0.344c0.123,0.081 0.519,0.469 0.474,2.076l-0.025,0.888l0.878,0.13c0.894,0.239 1.852,-0.011 2.514,-0.657c0.572,-0.806 0.682,-1.855 0.291,-2.761c-0.048,-0.191 -0.005,-0.393 0.115,-0.547c2.308,-3.273 5.662,-5.666 9.508,-6.783c8.005,5.142 12.86,14.026 12.865,23.541c-0.015,15.358 -12.649,27.991 -28.007,28.005l-0.001,0Z" style="fill:#003f5b;fill-rule:nonzero;"/></g></g></g><defs><linearGradient id="_Linear2" x1="0" y1="0" x2="1" y2="0" gradientUnits="userSpaceOnUse" gradientTransform="matrix(41.612,-58.1898,58.1898,41.612,51.637,107.969)"><stop offset="0" style="stop-color:#fcda61;stop-opacity:1"/><stop offset="0.25" style="stop-color:#fff9c9;stop-opacity:1"/><stop offset="0.62" style="stop-color:#c49432;stop-opacity:1"/><stop offset="1" style="stop-color:#f4e3a0;stop-opacity:1"/></linearGradient></defs></svg>