<?xml version="1.0" encoding="UTF-8" standalone="no"?><!DOCTYPE svg PUBLIC "-//W3C//DTD SVG 1.1//EN" "http://www.w3.org/Graphics/SVG/1.1/DTD/svg11.dtd"><svg width="100%" height="100%" viewBox="0 0 130 160" version="1.1" xmlns="http://www.w3.org/2000/svg" xmlns:xlink="http://www.w3.org/1999/xlink" xml:space="preserve" xmlns:serif="http://www.serif.com/" style="fill-rule:evenodd;clip-rule:evenodd;"><rect id="Artboard1" x="0" y="0" width="130" height="160" style="fill:none;"/><clipPath id="_clip1"><rect x="0" y="0" width="130" height="160"/></clipPath><g clip-path="url(#_clip1)"><g><g><path d="M65.003,147.568c-8.514,-4.771 -16.258,-11.467 -23.022,-19.907c-6.252,-7.8 -11.652,-17.058 -16.051,-27.517c-4.052,-9.635 -7.176,-20.078 -9.286,-31.04c-1.95,-10.133 -2.955,-20.251 -2.987,-30.085c20.631,-0.143 40.2,-9.057 51.346,-23.379c11.146,14.322 30.715,23.236 51.346,23.379c-0.033,9.834 -1.037,19.952 -2.987,30.085c-2.11,10.962 -5.234,21.405 -9.287,31.04c-4.398,10.459 -9.798,19.717 -16.05,27.517c-6.765,8.44 -14.509,15.136 -23.022,19.907Z" style="fill:#fff;fill-rule:nonzero;"/><path d="M65.003,16.447c-11.21,14.033 -30.486,22.788 -50.844,23.066c0.064,9.647 1.065,19.565 2.976,29.496c2.103,10.928 5.218,21.338 9.256,30.941c4.381,10.416 9.757,19.634 15.98,27.398c6.659,8.309 14.271,14.916 22.632,19.646c8.361,-4.73 15.972,-11.337 22.632,-19.646c6.222,-7.764 11.599,-16.982 15.98,-27.398c4.038,-9.603 7.152,-20.013 9.256,-30.941c1.911,-9.931 2.911,-19.849 2.976,-29.496c-20.358,-0.278 -39.634,-9.033 -50.844,-23.066m0,-1.628c11.665,15.406 32.404,23.701 51.847,23.701c0,38.833 -15.554,89.474 -51.847,109.62c-36.293,-20.146 -51.847,-70.787 -51.847,-109.62c19.442,0 40.181,-8.295 51.847,-23.701Z" style="fill:none;"/></g><path d="M61.407,155.034c-38.448,-21.344 -55.658,-73.687 -55.658,-116.094l0,-7.407l7.407,0c18.356,0 36.39,-8.151 45.942,-20.766l5.9,-7.8l5.905,7.8c9.552,12.615 27.586,20.766 45.942,20.766l7.406,0l0,7.407c0,42.408 -17.21,94.751 -55.659,116.094l-3.6,2l-3.585,-2Z" style="fill:none;stroke:#fff;stroke-width:3px;"/><g><g><path d="M42.26,81.01l1.631,-1.319c1.218,-0.97 2.73,-1.499 4.287,-1.5l5.655,0c1.64,0.001 2.989,1.35 2.991,2.991l0,0.89l4.581,-0.011c1.518,-0.041 2.853,1.04 3.13,2.534c0.075,0.513 0.011,1.037 -0.186,1.518c0.429,0.071 0.828,0.268 1.145,0.567c0.327,-0.304 0.725,-0.521 1.157,-0.633c-0.226,-0.449 -0.304,-0.958 -0.22,-1.452c0.277,-1.494 1.613,-2.575 3.131,-2.534l4.593,0l-0.012,-0.879c0.005,-1.639 1.352,-2.987 2.991,-2.991l5.655,0c1.555,0.001 3.065,0.53 4.28,1.5l1.652,1.321l0.925,-1c2.748,-2.908 4.134,-6.85 3.811,-10.838c-0.72,-7.477 -7.123,-13.227 -14.634,-13.142l-0.487,0.001c-4.168,-0.002 -8.134,1.821 -10.846,4.987l-1.94,2.253l-0.133,0l-1.936,-2.258c-2.709,-3.165 -6.673,-4.988 -10.838,-4.985l-0.5,0c-7.515,-0.088 -13.922,5.667 -14.638,13.149c-0.32,3.985 1.068,7.925 3.815,10.829l0.94,1.002Z" style="fill:url(#_Linear2);fill-rule:nonzero;"/><path d="M70.449,95.646l-0.89,0.066c-1.516,0.038 -2.85,-1.039 -3.132,-2.529c-0.076,-0.515 -0.012,-1.041 0.186,-1.522c-0.429,-0.073 -0.827,-0.271 -1.145,-0.567c-0.328,0.303 -0.726,0.521 -1.158,0.633c0.229,0.446 0.306,0.956 0.22,1.451c-0.277,1.493 -1.612,2.574 -3.13,2.534l-0.868,0c0.102,0.295 0.155,0.605 0.157,0.918c0,1.038 -0.552,2.002 -1.449,2.527l6.247,6.64l6.228,-6.662c-1.217,-0.691 -1.757,-2.179 -1.266,-3.489Z" style="fill:url(#_Linear3);fill-rule:nonzero;"/></g><path d="M92.654,82.053l-2.131,0l0.607,-0.648c3.14,-3.321 4.725,-7.825 4.355,-12.379c-0.635,-8.426 -7.979,-15.026 -16.721,-15.026l-0.44,0c-4.76,-0.003 -9.289,2.08 -12.386,5.695l-0.446,0.543l-0.465,-0.543c-3.097,-3.615 -7.626,-5.698 -12.386,-5.695l-0.44,0c-8.739,0 -16.084,6.6 -16.721,15.02c-0.343,4.553 1.238,9.049 4.355,12.386l0.719,0.647l-2.676,0c-1.576,0.002 -2.872,1.298 -2.875,2.874l0,7.916c0.003,1.575 1.299,2.871 2.875,2.874l3.056,0l2.955,2.363c1.217,0.969 2.728,1.498 4.285,1.5l8.7,0l8.546,9.116l0.042,0.027l0.021,0l0.065,-0.027l8.537,-9.112l8.7,0c1.557,-0.001 3.069,-0.53 4.287,-1.5l2.947,-2.362l2.636,0c1.576,-0.002 2.873,-1.298 2.875,-2.874l0,-7.916c0.001,-1.579 -1.298,-2.878 -2.876,-2.879Zm-55.149,-12.871c0.716,-7.482 7.123,-13.237 14.638,-13.15l0.5,0c4.165,-0.002 8.129,1.821 10.838,4.986l1.936,2.255l0.133,0l1.935,-2.256c2.712,-3.166 6.678,-4.989 10.846,-4.987l0.487,0c7.513,-0.088 13.919,5.663 14.639,13.143c0.323,3.987 -1.063,7.929 -3.811,10.837l-0.925,1l-1.652,-1.321c-1.216,-0.97 -2.725,-1.499 -4.28,-1.5l-5.655,0c-1.639,0.004 -2.986,1.352 -2.991,2.991l0.012,0.879l-4.593,0c-1.518,-0.041 -2.854,1.04 -3.131,2.534c-0.084,0.494 -0.006,1.003 0.22,1.452c-0.432,0.112 -0.83,0.329 -1.157,0.633c-0.317,-0.299 -0.716,-0.496 -1.145,-0.567c0.197,-0.481 0.261,-1.005 0.186,-1.518c-0.277,-1.494 -1.612,-2.575 -3.13,-2.534l-4.581,0.011l0,-0.89c-0.001,-1.641 -1.351,-2.99 -2.991,-2.991l-5.655,0c-1.557,0.001 -3.069,0.53 -4.287,1.5l-1.631,1.319l-0.94,-1c-2.747,-2.905 -4.135,-6.845 -3.815,-10.831l0,0.004Zm20.232,28.366l-9.564,0c-1.095,-0.001 -2.157,-0.374 -3.013,-1.057l-3.549,-2.817l-1.829,0l-1.9,0c-0.463,-0.001 -0.844,-0.382 -0.845,-0.844l0,-7.916c0.001,-0.463 0.382,-0.844 0.845,-0.844l3.79,0l3.492,-2.794c0.857,-0.683 1.921,-1.056 3.017,-1.057l5.653,0c0.524,0 0.956,0.431 0.956,0.956l0.011,0.879l-4.762,0l-0.088,0.039l0,1.908l0.038,0.088l11.624,0c0.504,0 0.918,0.414 0.918,0.918c0,0.503 -0.414,0.918 -0.918,0.918l-9.639,0l-0.088,0.038l0,1.909l0.039,0.088l11.624,0c0.001,-0.001 0.001,-0.001 0.002,-0.001c0.503,0 0.917,0.414 0.917,0.917l0,0.003c0,0.502 -0.413,0.916 -0.916,0.916l-11.584,0.001l-0.088,0.038l0,1.911l0.039,0.088l9.688,0c0.503,0 0.917,0.414 0.917,0.917c0,0.001 0,0.001 0,0.002c-0.001,0.502 -0.414,0.916 -0.917,0.917l-9.639,0l-0.088,0.038l0,1.909l0.039,0.088l5.818,0c0.001,-0.001 0.001,-0.001 0.002,-0.001c0.503,0 0.917,0.414 0.917,0.917l0,0.003c0,0.502 -0.413,0.916 -0.916,0.917l-0.003,0.008Zm7.75,8.249l-6.247,-6.64c0.897,-0.524 1.449,-1.488 1.449,-2.526c-0.002,-0.313 -0.055,-0.623 -0.157,-0.919l0.868,0c1.518,0.041 2.853,-1.04 3.13,-2.534c0.086,-0.494 0.009,-1.004 -0.22,-1.451c0.432,-0.111 0.83,-0.329 1.158,-0.633c0.318,0.297 0.716,0.495 1.145,0.567c-0.198,0.482 -0.262,1.008 -0.186,1.522c0.282,1.491 1.616,2.568 3.132,2.529l0.89,-0.066c-0.491,1.311 0.049,2.799 1.266,3.489l-6.228,6.662Zm28.012,-18.777l0,5.823c0,0.464 -0.381,0.845 -0.844,0.845c0,0 -0.001,0 -0.001,-0.001l-3.3,0l0,0.009l-0.064,0l-3.494,2.794c-0.856,0.683 -1.918,1.056 -3.013,1.057l-9.56,0c0,0.001 -0.001,0.001 -0.001,0.001c-0.503,0 -0.917,-0.414 -0.918,-0.918c0,-0.503 0.414,-0.917 0.917,-0.919l5.771,0l0.088,-0.038l0,-1.91l-0.038,-0.088l-9.69,0c-0.503,-0.001 -0.917,-0.415 -0.917,-0.919c0.001,-0.502 0.414,-0.915 0.917,-0.917l9.64,0l0.088,-0.038l0,-1.909l-0.038,-0.088l-11.628,0c-0.503,-0.001 -0.917,-0.415 -0.917,-0.918c0.001,-0.503 0.414,-0.916 0.917,-0.918l11.575,0.001l0.088,-0.038l0,-1.91l-0.038,-0.088l-9.69,0c-0.503,-0.001 -0.917,-0.415 -0.917,-0.919c0.001,-0.502 0.414,-0.915 0.917,-0.917l11.574,0l0.088,-0.038l0,-1.906l-0.038,-0.089l-4.8,0.011l0,-0.89c0.001,-0.524 0.432,-0.955 0.956,-0.956l5.655,0c1.095,0.002 2.158,0.375 3.015,1.057l3.546,2.813l2.937,-0.016l0.373,0c0.463,0 0.844,0.381 0.844,0.844c0,0 0,2.093 0,2.093Z" style="fill:#003f5b;fill-rule:nonzero;"/></g></g></g><defs><linearGradient id="_Linear2" x1="0" y1="0" x2="1" y2="0" gradientUnits="userSpaceOnUse" gradientTransform="matrix(46.0677,-38.6815,38.6815,46.0677,47.4355,94.7101)"><stop offset="0" style="stop-color:#fcda61;stop-opacity:1"/><stop offset="0.25" style="stop-color:#fff9c9;stop-opacity:1"/><stop offset="0.62" style="stop-color:#c49432;stop-opacity:1"/><stop offset="1" style="stop-color:#f4e3a0;stop-opacity:1"/></linearGradient><linearGradient id="_Linear3" x1="0" y1="0" x2="1" y2="0" gradientUnits="userSpaceOnUse" gradientTransform="matrix(4.546,0,0,4.546,-58.578,199.773)"><stop offset="0" style="stop-color:#fcda61;stop-opacity:1"/><stop offset="0.25" style="stop-color:#fff9c9;stop-opacity:1"/><stop offset="0.62" style="stop-color:#c49432;stop-opacity:1"/><stop offset="1" style="stop-color:#f4e3a0;stop-opacity:1"/></linearGradient></defs></svg>