<?xml version="1.0" encoding="UTF-8" standalone="no"?><!DOCTYPE svg PUBLIC "-//W3C//DTD SVG 1.1//EN" "http://www.w3.org/Graphics/SVG/1.1/DTD/svg11.dtd"><svg width="100%" height="100%" viewBox="0 0 130 160" version="1.1" xmlns="http://www.w3.org/2000/svg" xmlns:xlink="http://www.w3.org/1999/xlink" xml:space="preserve" xmlns:serif="http://www.serif.com/" style="fill-rule:evenodd;clip-rule:evenodd;"><rect id="Artboard1" x="0" y="0" width="130" height="160" style="fill:none;"/><clipPath id="_clip1"><rect x="0" y="0" width="130" height="160"/></clipPath><g clip-path="url(#_clip1)"><g><g><path d="M65.003,147.568c-8.514,-4.771 -16.258,-11.467 -23.022,-19.907c-6.252,-7.8 -11.652,-17.058 -16.051,-27.517c-4.052,-9.635 -7.176,-20.078 -9.286,-31.04c-1.95,-10.133 -2.955,-20.251 -2.987,-30.085c20.631,-0.143 40.2,-9.057 51.346,-23.379c11.146,14.322 30.715,23.236 51.346,23.379c-0.033,9.834 -1.037,19.952 -2.987,30.085c-2.11,10.962 -5.234,21.405 -9.287,31.04c-4.398,10.459 -9.798,19.717 -16.05,27.517c-6.765,8.44 -14.509,15.136 -23.022,19.907Z" style="fill:#fff;fill-rule:nonzero;"/><path d="M65.003,16.447c-11.21,14.033 -30.486,22.788 -50.844,23.066c0.064,9.647 1.065,19.565 2.976,29.496c2.103,10.928 5.218,21.338 9.256,30.941c4.381,10.416 9.757,19.634 15.98,27.398c6.659,8.309 14.271,14.916 22.632,19.646c8.361,-4.73 15.972,-11.337 22.632,-19.646c6.222,-7.764 11.599,-16.982 15.98,-27.398c4.038,-9.603 7.152,-20.013 9.256,-30.941c1.911,-9.931 2.911,-19.849 2.976,-29.496c-20.358,-0.278 -39.634,-9.033 -50.844,-23.066m0,-1.628c11.665,15.406 32.404,23.701 51.847,23.701c0,38.833 -15.554,89.474 -51.847,109.62c-36.293,-20.146 -51.847,-70.787 -51.847,-109.62c19.442,0 40.181,-8.295 51.847,-23.701Z" style="fill:#fff;fill-rule:nonzero;"/></g><path d="M61.407,155.033c-38.448,-21.343 -55.658,-73.686 -55.658,-116.094l0,-7.406l7.407,0c18.356,0 36.39,-8.151 45.942,-20.767l5.9,-7.8l5.905,7.8c9.552,12.616 27.586,20.767 45.942,20.767l7.406,0l0,7.407c0,42.408 -17.21,94.75 -55.659,116.093l-3.6,2l-3.585,-2Z" style="fill:none;stroke:#fff;stroke-width:3px;"/><g><path d="M75.349,93.668l-9.6,-4.8c-0.435,-0.25 -0.838,-0.552 -1.2,-0.9l-0.2,-0.3c-0.221,-0.189 -0.393,-0.429 -0.5,-0.7l0,-0.1l-0.3,-0.6l0,-0.1c-0.111,-0.182 -0.179,-0.387 -0.2,-0.6l0,-0.2c-0.089,-0.221 -0.124,-0.462 -0.1,-0.7l0,-4.099l0.3,-0.3c0.2,-0.3 0.5,-0.7 0.8,-1.1c1.209,-1.752 2.152,-3.673 2.8,-5.701l0.1,-0.299l0.5,-0.2c0.82,-0.273 1.383,-1.037 1.4,-1.9l0,-4c-0.021,-0.574 -0.274,-1.116 -0.7,-1.5l-0.3,-0.3l0,-8.6c-0.215,-1.07 -0.697,-2.067 -1.4,-2.9c-1.7,-1.8 -4.5,-2.8 -8.4,-2.8c-3.9,0 -6.7,0.9 -8.4,2.8c-1.146,1.404 -1.718,3.191 -1.6,5l0,6.3l-0.3,0.3c-0.463,0.356 -0.724,0.916 -0.7,1.5l0,4c-0.017,0.684 0.325,1.329 0.9,1.7l0.3,0.2l0.1,0.4c0.611,2.582 1.771,5.004 3.4,7.1l0.2,0.3l0,4c0.016,1.701 -0.908,3.28 -2.4,4.1l-8.9,4.9c-2.271,1.232 -3.694,3.615 -3.7,6.2l0,2.2l42,0l0,-2c0.009,-2.668 -1.508,-5.119 -3.9,-6.3Z" style="fill:url(#_Linear2);fill-rule:nonzero;"/><path d="M90.749,92.968l-9.8,-4.2c-0.305,-0.194 -0.548,-0.472 -0.7,-0.8l6.5,0c1.698,0.158 3.41,-0.082 5,-0.7c0.805,-0.37 1.421,-1.058 1.7,-1.9c0.23,-0.851 0.084,-1.762 -0.4,-2.5c-1.9,-2.7 -6.2,-9.599 -6.4,-16.6c0,-0.1 -0.4,-12.1 -12.2,-12.2c-1.643,-0.01 -3.273,0.295 -4.8,0.9c-0.349,-0.915 -0.856,-1.761 -1.5,-2.5c-2.1,-2.3 -5.4,-3.5 -9.9,-3.5c-4.5,0 -7.9,1.2 -9.9,3.5c-1.517,1.812 -2.271,4.144 -2.1,6.5l0,5.3c-0.618,0.729 -0.971,1.646 -1,2.6l0,4c0.012,1.205 0.563,2.343 1.5,3.1c0.655,2.617 1.847,5.069 3.5,7.2l0,3.3c0.037,0.977 -0.516,1.885 -1.4,2.3l-8.9,4.9c-2.885,1.678 -4.676,4.763 -4.7,8.1l0,4.2l60,0l0,-3.7c0.017,-3.087 -1.734,-5.927 -4.5,-7.299Zm-11.5,9l-42,0l0,-2.2c0.006,-2.585 1.429,-4.968 3.7,-6.201l8.9,-4.9c1.492,-0.819 2.416,-2.398 2.4,-4.099l0,-4l-0.2,-0.3c-1.629,-2.096 -2.789,-4.518 -3.4,-7.1l-0.1,-0.4l-0.3,-0.2c-0.575,-0.371 -0.917,-1.016 -0.9,-1.7l0,-4c-0.024,-0.584 0.237,-1.144 0.7,-1.5l0.3,-0.3l0,-6.3c-0.118,-1.809 0.454,-3.596 1.6,-5c1.7,-1.9 4.5,-2.8 8.4,-2.8c3.9,0 6.7,1 8.4,2.8c0.703,0.833 1.185,1.83 1.4,2.9l0,8.6l0.3,0.3c0.426,0.384 0.679,0.926 0.7,1.5l0,4c-0.017,0.863 -0.58,1.627 -1.4,1.9l-0.5,0.2l-0.1,0.3c-0.648,2.027 -1.591,3.948 -2.8,5.7c-0.3,0.4 -0.6,0.8 -0.8,1.1l-0.3,0.3l0,4.1c-0.024,0.237 0.011,0.478 0.1,0.7l0,0.2c0.021,0.212 0.089,0.417 0.2,0.6l0,0.1l0.3,0.6l0,0.1c0.107,0.27 0.279,0.51 0.5,0.7l0.2,0.3c0.362,0.347 0.765,0.649 1.2,0.9l9.6,4.8c2.392,1.181 3.909,3.632 3.9,6.299l0,2.001Zm14,0l-12,0l0,-2c-0.009,-3.421 -1.946,-6.559 -5,-8.1l-6.8,-3.4c0.201,-0.41 0.201,-0.891 0,-1.3c-0.219,-0.701 -0.866,-1.186 -1.6,-1.2l-2.2,0c0,-0.1 -0.1,-0.2 -0.1,-0.3c0,-0.1 -0.1,-0.2 -0.1,-0.3c-0.169,-0.191 -0.243,-0.449 -0.2,-0.7l0,-3.4c0.257,-0.317 0.491,-0.651 0.7,-1c1.216,-1.814 2.222,-3.76 3,-5.8c1.418,-0.627 2.327,-2.05 2.3,-3.6l0,-4c-0.011,-0.959 -0.366,-1.882 -1,-2.6l0,-5.3c0.056,-0.702 0.022,-1.408 -0.1,-2.1c1.371,-0.534 2.829,-0.805 4.3,-0.8c9.8,0.1 10.2,9.8 10.2,10.2c0.1,7.6 4.7,14.9 6.7,17.7c0.185,0.224 0.224,0.536 0.1,0.8c-0.038,0.278 -0.233,0.511 -0.5,0.6c-1.32,0.438 -2.714,0.608 -4.1,0.5l-6.9,0c-0.651,0.009 -1.254,0.348 -1.6,0.9c-0.334,0.544 -0.371,1.221 -0.1,1.8c0.374,0.814 1.007,1.482 1.8,1.9l9.7,4.2c2.105,1.011 3.436,3.164 3.4,5.5l0,1.8l0.1,0Z" style="fill:#003f5b;fill-rule:nonzero;"/></g></g></g><defs><linearGradient id="_Linear2" x1="0" y1="0" x2="1" y2="0" gradientUnits="userSpaceOnUse" gradientTransform="matrix(236.934,-51,51,236.934,-151.637,101.969)"><stop offset="0" style="stop-color:#fcda61;stop-opacity:1"/><stop offset="0.25" style="stop-color:#fff9c9;stop-opacity:1"/><stop offset="0.62" style="stop-color:#c49432;stop-opacity:1"/><stop offset="1" style="stop-color:#f4e3a0;stop-opacity:1"/></linearGradient></defs></svg>