<svg xmlns="http://www.w3.org/2000/svg" width="16.601" height="13.497" viewBox="0 0 16.601 13.497"><defs><style>.a{fill:#6e7b88;}</style></defs><path class="a" d="M1235.556,2984.436a9.627,9.627,0,0,0,9.691-9.695c0-.147,0-.294-.01-.44a6.9,6.9,0,0,0,1.7-1.764,6.822,6.822,0,0,1-1.955.537,3.428,3.428,0,0,0,1.5-1.885,6.849,6.849,0,0,1-2.163.828,3.406,3.406,0,0,0-5.891,2.33,3.478,3.478,0,0,0,.087.778,9.678,9.678,0,0,1-7.021-3.56,3.41,3.41,0,0,0,1.055,4.548,3.384,3.384,0,0,1-1.544-.427c0,.015,0,.029,0,.043a3.408,3.408,0,0,0,2.731,3.34,3.344,3.344,0,0,1-1.537.058,3.411,3.411,0,0,0,3.182,2.368,6.872,6.872,0,0,1-5.042,1.411,9.627,9.627,0,0,0,5.221,1.532" transform="translate(-1230.335 -2970.938)"/></svg>