<?xml version="1.0" encoding="UTF-8" standalone="no"?><!DOCTYPE svg PUBLIC "-//W3C//DTD SVG 1.1//EN" "http://www.w3.org/Graphics/SVG/1.1/DTD/svg11.dtd"><svg width="100%" height="100%" viewBox="0 0 996 303" version="1.1" xmlns="http://www.w3.org/2000/svg" xmlns:xlink="http://www.w3.org/1999/xlink" xml:space="preserve" xmlns:serif="http://www.serif.com/" style="fill-rule:evenodd;clip-rule:evenodd;stroke-linejoin:round;stroke-miterlimit:1.41421;"><rect id="Artboard1" x="0" y="0" width="995.2" height="302.42" style="fill:none;"/><clipPath id="_clip1"><rect x="0" y="0" width="995.2" height="302.42"/></clipPath><g clip-path="url(#_clip1)"><g><path d="M210.004,183.162c3.821,-9.555 5.818,-19.866 5.818,-30.341l0,-89.311l-81.556,-12.186l75.738,131.838Z" style="fill:#f0bd59;fill-rule:nonzero;"/><path d="M129.354,108.01c-6.915,13.09 -36.646,62.85 -61.001,103.322c25.721,24.767 61.253,40.462 61.253,40.462c0,0 35.263,-15.578 60.959,-40.181c-24.406,-40.521 -54.284,-90.484 -61.211,-103.603" style="fill:#f0bd59;fill-rule:nonzero;"/><path d="M124.393,51.404l-81.001,12.102l0,89.316c0,10.273 1.921,20.383 5.599,29.782l75.402,-131.2Z" style="fill:#f0bd59;fill-rule:nonzero;"/><path d="M129.606,0l-129.606,19.365l0,134.268c0,32.022 12.375,62.99 35.082,85.575c38.815,38.609 94.524,63.212 94.524,63.212c0,0 55.709,-24.603 94.524,-63.212c22.707,-22.585 35.082,-53.553 35.082,-85.575l0,-134.268l-129.606,-19.365Zm99.442,153.07c0,24.569 -9.5,48.328 -26.919,65.659c-29.782,29.622 -72.523,48.495 -72.523,48.495c0,0 -42.741,-18.873 -72.523,-48.495c-17.419,-17.331 -26.919,-41.09 -26.919,-65.659l0,-103.015l99.442,-14.859l99.442,14.859l0,103.015Z" style="fill:#0c3f5a;fill-rule:nonzero;"/><path d="M352.972,122.3l-17.251,42.274l34.347,0l-17.096,-42.274Zm-25.334,62.014l-8.55,21.143l-25.335,0l47.252,-108.807l25.334,0l46.474,108.807l-26.268,0l-8.55,-21.143l-50.357,0Z" style="fill:#0c3f5a;fill-rule:nonzero;"/><path d="M468.301,153.85c13.523,0 21.295,-6.217 21.295,-18.651c0,-12.123 -7.772,-18.184 -21.295,-18.184l-22.69,0l0,36.835l22.69,0Zm2.333,20.517l-2.333,0l-22.69,0l0,31.089l-24.561,0l0,-108.803l47.251,0c28.445,0 44.607,13.674 44.607,37.769c0,16.788 -7.145,28.907 -20.357,35.128l23.157,35.906l-27.823,0l-17.251,-31.089Z" style="fill:#0c3f5a;fill-rule:nonzero;"/><path d="M623.424,205.456l0,-73.363l-28.912,62.325l-16.011,0l-28.907,-62.325l0,73.363l-22.229,0l0,-108.803l27.512,0l31.707,66.524l31.556,-66.524l27.352,0l0,108.803l-22.068,0Z" style="fill:#0c3f5a;fill-rule:nonzero;"/><path d="M683.886,151.053c0,19.117 15.389,34.04 33.573,34.04c18.184,0 32.951,-14.923 32.951,-34.04c0,-19.118 -14.767,-33.729 -32.951,-33.729c-18.34,0 -33.573,14.611 -33.573,33.729m91.703,0c0,31.4 -25.179,55.49 -58.441,55.49c-33.262,0 -58.441,-23.935 -58.441,-55.49c0,-31.707 25.179,-55.175 58.441,-55.175c33.262,0 58.441,23.623 58.441,55.175" style="fill:#0c3f5a;fill-rule:nonzero;"/><path d="M884.861,159.911c0,28.756 -18.811,46.634 -48.807,46.634c-30.151,0 -49.429,-17.878 -49.429,-46.634l0,-63.258l24.561,0l0,63.258c0,15.7 10.257,25.179 24.868,25.179c14.611,0 24.246,-9.479 24.246,-25.179l0,-63.258l24.561,0l0,63.258Z" style="fill:#0c3f5a;fill-rule:nonzero;"/><path d="M947.811,153.85c13.522,0 21.29,-6.217 21.29,-18.651c0,-12.123 -7.768,-18.184 -21.29,-18.184l-22.691,0l0,36.835l22.691,0Zm2.333,20.517l-2.333,0l-22.691,0l0,31.089l-24.561,0l0,-108.803l47.252,0c28.445,0 44.607,13.674 44.607,37.769c0,16.788 -7.15,28.907 -20.357,35.128l23.157,35.906l-27.823,0l-17.251,-31.089Z" style="fill:#0c3f5a;fill-rule:nonzero;"/></g></g></svg>