<?xml version="1.0" encoding="UTF-8" standalone="no"?><!DOCTYPE svg PUBLIC "-//W3C//DTD SVG 1.1//EN" "http://www.w3.org/Graphics/SVG/1.1/DTD/svg11.dtd"><svg width="100%" height="100%" viewBox="0 0 100 100" version="1.1" xmlns="http://www.w3.org/2000/svg" xmlns:xlink="http://www.w3.org/1999/xlink" xml:space="preserve" xmlns:serif="http://www.serif.com/" style="fill-rule:evenodd;clip-rule:evenodd;stroke-linejoin:round;stroke-miterlimit:1.41421;"><rect id="Artboard1" x="0" y="0" width="100" height="100" style="fill:none;"/><path d="M50,80c-7.955,0 -23,-1.254 -23,-6l0,-2.238c-0.002,-3.297 1.805,-6.342 4.7,-7.92l9.261,-5.363c0.239,-0.145 0.469,-0.305 0.687,-0.479l-7.365,0c-1.502,0.136 -3.011,-0.177 -4.334,-0.9c-0.716,-0.428 -1.231,-1.126 -1.427,-1.937c-0.203,-0.835 -0.067,-1.718 0.378,-2.453c1.687,-2.777 5.662,-10.059 6.166,-17.674c0.097,-2.276 0.603,-4.515 1.493,-6.612c1.71,-3.807 5.375,-8.361 13.11,-8.424c13.2,0.108 13.644,13.482 13.646,13.617c0.154,7.971 5.081,15.82 7.191,18.824c0.56,0.796 0.73,1.804 0.462,2.739c-0.259,0.927 -0.926,1.689 -1.811,2.068c-1.768,0.65 -3.656,0.904 -5.533,0.746l-7.669,0.006c0.251,0.447 0.605,0.828 1.032,1.112l10.977,4.753c3.083,1.51 5.042,4.659 5.036,8.092l0,2.043c0,4.746 -15.045,6 -23,6Zm-15.769,-24l7.949,0c0.997,0.001 1.818,0.822 1.818,1.819c0,0.555 -0.255,1.081 -0.69,1.426c-0.428,0.361 -0.884,0.688 -1.363,0.977l-9.263,5.364c-2.265,1.225 -3.681,3.601 -3.682,6.176l0,2.238c0,1.357 7.412,4 21,4c13.588,0 21,-2.643 21,-4l0,-2.043c0.009,-2.658 -1.5,-5.099 -3.881,-6.279l-10.977,-4.753c-0.856,-0.478 -1.537,-1.219 -1.942,-2.113c-0.132,-0.268 -0.201,-0.563 -0.201,-0.862c0,-1.07 0.88,-1.95 1.95,-1.95c0.002,0 0.004,0 0.006,0l7.766,0c1.574,0.135 3.158,-0.066 4.649,-0.589c0.33,-0.144 0.579,-0.429 0.676,-0.776c0.103,-0.356 0.039,-0.74 -0.174,-1.043c-2.216,-3.155 -7.39,-11.413 -7.555,-19.934c-0.012,-0.469 -0.417,-11.566 -11.648,-11.658c-4.898,-0.189 -9.421,2.714 -11.29,7.245c-0.791,1.88 -1.239,3.886 -1.321,5.924c-0.533,8.056 -4.689,15.677 -6.452,18.579c-0.17,0.282 -0.221,0.62 -0.143,0.939c0.069,0.292 0.254,0.545 0.511,0.7c0.964,0.502 2.052,0.717 3.135,0.619l0.122,-0.006Z" style="fill:#003f5b;fill-rule:nonzero;"/></svg>