<?xml version="1.0" encoding="UTF-8" standalone="no"?><!DOCTYPE svg PUBLIC "-//W3C//DTD SVG 1.1//EN" "http://www.w3.org/Graphics/SVG/1.1/DTD/svg11.dtd"><svg width="100%" height="100%" viewBox="0 0 100 100" version="1.1" xmlns="http://www.w3.org/2000/svg" xmlns:xlink="http://www.w3.org/1999/xlink" xml:space="preserve" xmlns:serif="http://www.serif.com/" style="fill-rule:evenodd;clip-rule:evenodd;stroke-linejoin:round;stroke-miterlimit:1.41421;"><rect id="Artboard1" x="0" y="0" width="100" height="100" style="fill:none;"/><g><path d="M66,41.418l0,-5.613c0,-7.995 -7.178,-14.5 -16,-14.5c-8.822,0 -16,6.505 -16,14.5l0,5.613c-3.449,0.598 -5.994,3.617 -6,7.117l0,19.542c0.005,3.964 3.265,7.224 7.229,7.228l29.542,0c3.964,-0.004 7.225,-3.265 7.229,-7.229l0,-19.542c-0.006,-3.5 -2.551,-6.518 -6,-7.116Zm-30,-5.613c0,-6.893 6.28,-12.5 14,-12.5c7.72,0 14,5.607 14,12.5l0,5.5l-28,0l0,-5.5Zm34,32.271c-0.003,2.867 -2.362,5.226 -5.229,5.229l-29.542,0c-2.867,-0.003 -5.226,-2.362 -5.229,-5.229l0,-19.542c0.003,-2.867 2.362,-5.226 5.229,-5.229l29.542,0c2.867,0.003 5.226,2.362 5.229,5.229l0,19.542Z" style="fill:#fff;fill-rule:nonzero;"/><path d="M50,49.305c-2.194,0 -4,1.806 -4,4l0,6c0,2.194 1.806,4 4,4c2.194,0 4,-1.806 4,-4l0,-6c0,-2.194 -1.806,-4 -4,-4Zm2,10c0,1.097 -0.903,2 -2,2c-1.097,0 -2,-0.903 -2,-2l0,-6c0,-1.097 0.903,-2 2,-2c1.097,0 2,0.903 2,2l0,6Z" style="fill:#fff;fill-rule:nonzero;"/></g></svg>