<?xml version="1.0" encoding="utf-8"?>
<!-- Generator: Adobe Illustrator 23.0.2, SVG Export Plug-In . SVG Version: 6.00 Build 0)  -->
<svg version="1.1" id="Layer_1" xmlns="http://www.w3.org/2000/svg" xmlns:xlink="http://www.w3.org/1999/xlink" x="0px" y="0px"
	 viewBox="0 0 83 107" style="enable-background:new 0 0 83 107;" xml:space="preserve">
<style type="text/css">
	.st0{fill:none;stroke:#003F5B;stroke-width:3;stroke-linecap:round;stroke-linejoin:round;}
	.st1{fill:#FFFFFF;stroke:#003F5B;stroke-miterlimit:10;}
	.st2{fill:url(#SVGID_1_);}
	.st3{fill:none;stroke:#003F5B;stroke-width:2;stroke-linecap:round;stroke-linejoin:round;}
</style>
<title>icon-cloud</title>
<path class="st0" d="M39.1,104.2C13.1,89.7,1.5,54.4,1.5,25.8v-5h5c12.4,0,24.6-5.5,31-14l4-5.3l4,5.3c6.4,8.5,18.6,14,31,14h5v5
	c0,28.6-11.6,64-37.6,78.4l-2.4,1.3L39.1,104.2z"/>
<path class="st1" d="M41.5,9.8c-7.9,10.4-21.9,16-35,16c0,26.2,10.5,60.4,35,74c24.5-13.6,35-47.8,35-74
	C63.4,25.8,49.4,20.2,41.5,9.8z"/>
<linearGradient id="SVGID_1_" gradientUnits="userSpaceOnUse" x1="18.4979" y1="59.5" x2="64.5" y2="59.5" gradientTransform="matrix(1 0 0 -1 0 108)">
	<stop  offset="0" style="stop-color:#FCDA61"/>
	<stop  offset="0.25" style="stop-color:#FFF9C9"/>
	<stop  offset="0.62" style="stop-color:#C49432"/>
	<stop  offset="1" style="stop-color:#F4E3A0"/>
</linearGradient>
<path class="st2" d="M56.6,46.9c0-7-5.7-12.7-12.7-12.7c-5.1,0-9.8,3.1-11.7,7.8c-2.7-1.5-6.1-0.5-7.6,2.1c-0.5,0.8-0.7,1.8-0.7,2.7
	c0,0.1,0,0.3,0,0.4c-4.2,1.4-6.4,5.9-5,10c1.1,3.2,4.1,5.4,7.5,5.4h30.1c4.4,0,7.9-3.6,7.9-7.9S60.9,46.9,56.6,46.9z"/>
<path class="st3" d="M32.2,42.1c2.7-6.5,10.1-9.6,16.6-6.9c4.7,2,7.8,6.6,7.8,11.7"/>
<path class="st3" d="M35,46.9c0-3.1-2.5-5.5-5.6-5.5c-3.1,0-5.5,2.5-5.5,5.5c0,0.1,0,0.3,0,0.4c-4.2,1.4-6.4,5.9-5,10
	c1.1,3.2,4.1,5.4,7.5,5.4h30.1c4.4,0,7.9-3.6,7.9-7.9c0-4.4-3.6-7.9-7.9-7.9c-2.1,0-4.1,0.8-5.6,2.3"/>
</svg>
