<?xml version="1.0" encoding="UTF-8" standalone="no"?><!DOCTYPE svg PUBLIC "-//W3C//DTD SVG 1.1//EN" "http://www.w3.org/Graphics/SVG/1.1/DTD/svg11.dtd"><svg width="100%" height="100%" viewBox="0 0 100 100" version="1.1" xmlns="http://www.w3.org/2000/svg" xmlns:xlink="http://www.w3.org/1999/xlink" xml:space="preserve" xmlns:serif="http://www.serif.com/" style="fill-rule:evenodd;clip-rule:evenodd;stroke-linejoin:round;stroke-miterlimit:1.41421;"><rect id="Artboard1" x="0" y="0" width="100" height="100" style="fill:none;"/><g><path d="M58.914,20l-32.414,0l0,60l47,0l0,-45.414l-14.586,-14.586Zm0.586,3.414l10.586,10.586l-10.586,0l0,-10.586Zm-31,54.586l0,-56l29,0l0,14l14,0l0,42l-43,0Z" style="fill:#003f5b;fill-rule:nonzero;"/><path d="M36.5,37l9,0c0.549,0 1,-0.451 1,-1c0,-0.549 -0.451,-1 -1,-1l-9,0c-0.549,0 -1,0.451 -1,1c0,0.549 0.451,1 1,1Z" style="fill:#003f5b;fill-rule:nonzero;"/><path d="M53.5,57l-17,0c-0.549,0 -1,0.451 -1,1c0,0.549 0.451,1 1,1l17,0c0.549,0 1,-0.451 1,-1c0,-0.549 -0.451,-1 -1,-1Z" style="fill:#003f5b;fill-rule:nonzero;"/><path d="M63.5,50l-7,0c-0.549,0 -1,0.451 -1,1c0,0.549 0.451,1 1,1l7,0c0.549,0 1,-0.451 1,-1c0,-0.549 -0.451,-1 -1,-1Z" style="fill:#003f5b;fill-rule:nonzero;"/><path d="M36.5,45l5,0c0.549,0 1,-0.451 1,-1c0,-0.549 -0.451,-1 -1,-1l-5,0c-0.549,0 -1,0.451 -1,1c0,0.549 0.451,1 1,1Z" style="fill:#003f5b;fill-rule:nonzero;"/><path d="M51.5,45l7,0c0.549,0 1,-0.451 1,-1c0,-0.549 -0.451,-1 -1,-1l-7,0c-0.549,0 -1,0.451 -1,1c0,0.549 0.451,1 1,1Z" style="fill:#003f5b;fill-rule:nonzero;"/><path d="M45.5,44c0.003,0.546 0.454,0.994 1,0.994c0.549,0 1,-0.451 1,-1c0,-0.548 -0.451,-1 -1,-1c-0.267,0 -0.522,0.107 -0.71,0.296c-0.183,0.192 -0.286,0.445 -0.29,0.71Z" style="fill:#003f5b;fill-rule:nonzero;"/><path d="M41.5,50c-0.549,0 -1,0.451 -1,1c0,0.549 0.451,1 1,1l10,0c0.549,0 1,-0.451 1,-1c0,-0.549 -0.451,-1 -1,-1l-10,0Z" style="fill:#003f5b;fill-rule:nonzero;"/><path d="M36.5,52c0.546,-0.003 0.994,-0.454 0.994,-1c0,-0.549 -0.451,-1 -1,-1c-0.264,0 -0.517,0.104 -0.704,0.29c-0.184,0.19 -0.288,0.445 -0.29,0.71c0,0.003 0,0.007 0,0.01c0,0.543 0.447,0.99 0.99,0.99c0.003,0 0.007,0 0.01,0Z" style="fill:#003f5b;fill-rule:nonzero;"/><path d="M63.5,64l-7,0c-0.549,0 -1,0.451 -1,1c0,0.549 0.451,1 1,1l7,0c0.549,0 1,-0.451 1,-1c0,-0.549 -0.451,-1 -1,-1Z" style="fill:#003f5b;fill-rule:nonzero;"/><path d="M51.5,64l-10,0c-0.549,0 -1,0.451 -1,1c0,0.549 0.451,1 1,1l10,0c0.549,0 1,-0.451 1,-1c0,-0.549 -0.451,-1 -1,-1Z" style="fill:#003f5b;fill-rule:nonzero;"/><path d="M35.79,64.29c-0.186,0.189 -0.29,0.445 -0.29,0.71c-0.003,0.266 0.102,0.522 0.29,0.71c0.192,0.183 0.445,0.286 0.71,0.29c0.265,-0.002 0.519,-0.106 0.71,-0.29c0.183,-0.192 0.286,-0.445 0.29,-0.71c0,-0.263 -0.104,-0.515 -0.29,-0.7c-0.394,-0.376 -1.021,-0.38 -1.42,-0.01Z" style="fill:#003f5b;fill-rule:nonzero;"/><path d="M62.79,43.29c-0.188,0.188 -0.294,0.444 -0.294,0.71c0,0.551 0.453,1.004 1.004,1.004c0.266,0 0.522,-0.106 0.71,-0.294c0.384,-0.392 0.384,-1.028 0,-1.42c-0.399,-0.368 -1.021,-0.368 -1.42,0Z" style="fill:#003f5b;fill-rule:nonzero;"/><path d="M59.21,58.71c0.186,-0.187 0.29,-0.441 0.29,-0.704c0,-0.549 -0.451,-1 -1,-1c-0.549,0 -1,0.451 -1,1c0,0.263 0.104,0.517 0.29,0.704c0.188,0.188 0.444,0.292 0.71,0.29c0.265,-0.002 0.519,-0.106 0.71,-0.29Z" style="fill:#003f5b;fill-rule:nonzero;"/><path d="M62.79,57.29c-0.384,0.392 -0.384,1.028 0,1.42c0.392,0.384 1.028,0.384 1.42,0c0.188,-0.188 0.294,-0.444 0.294,-0.71c0,-0.551 -0.453,-1.004 -1.004,-1.004c-0.266,0 -0.522,0.106 -0.71,0.294Z" style="fill:#003f5b;fill-rule:nonzero;"/></g></svg>