<?xml version="1.0" encoding="UTF-8" standalone="no"?><!DOCTYPE svg PUBLIC "-//W3C//DTD SVG 1.1//EN" "http://www.w3.org/Graphics/SVG/1.1/DTD/svg11.dtd"><svg width="100%" height="100%" viewBox="0 0 100 100" version="1.1" xmlns="http://www.w3.org/2000/svg" xmlns:xlink="http://www.w3.org/1999/xlink" xml:space="preserve" xmlns:serif="http://www.serif.com/" style="fill-rule:evenodd;clip-rule:evenodd;stroke-linejoin:round;stroke-miterlimit:1.41421;"><rect id="Artboard1" x="0" y="0" width="100" height="100" style="fill:none;"/><g><path d="M71.776,42.839c-0.469,-1.056 -1.174,-2.23 -1.761,-3.169l0,-0.118c-0.117,-0.117 -0.117,-0.117 -0.235,-0.235c-0.704,-0.939 -1.408,-1.878 -2.23,-2.7c-10.565,-11.621 -28.174,-13.617 -28.174,-13.617c0,0 -0.117,6.574 10.683,13.265c0,0 -7.513,0.822 -12.913,-3.522c-6.692,4.344 -11.153,11.74 -11.153,20.309c0,13.265 10.8,23.948 24.066,23.948c13.265,0 23.948,-10.683 23.948,-23.948c0,-3.639 -0.822,-7.161 -2.231,-10.213Zm-21.717,20.661c-5.752,0 -10.448,-4.696 -10.448,-10.448c0,-5.752 4.696,-10.448 10.448,-10.448c5.752,0 10.448,4.696 10.448,10.448c0,5.752 -4.696,10.448 -10.448,10.448Z" style="fill:#003f5b;fill-rule:nonzero;"/><path d="M71.776,42.839c-0.469,-1.056 -1.174,-2.23 -1.761,-3.169l0,-0.118c-0.117,-0.117 -0.117,-0.117 -0.235,-0.235c-0.587,-0.821 -1.291,-1.643 -1.878,-2.347c-1.643,4.813 -4.343,9.156 -7.865,12.678c0.352,1.056 0.587,2.23 0.587,3.404c0,5.752 -4.696,10.448 -10.448,10.448c-3.639,0 -6.809,-1.878 -8.687,-4.578c-1.526,0.235 -3.052,0.352 -4.696,0.352c-3.521,0 -6.926,-0.587 -10.213,-1.644c1.996,11.035 11.74,19.37 23.479,19.37c13.265,0 23.948,-10.683 23.948,-23.948c0,-3.639 -0.822,-7.161 -2.231,-10.213Z" style="fill:#003f5b;fill-rule:nonzero;"/></g></svg>