<?xml version="1.0" encoding="UTF-8" standalone="no"?><!DOCTYPE svg PUBLIC "-//W3C//DTD SVG 1.1//EN" "http://www.w3.org/Graphics/SVG/1.1/DTD/svg11.dtd"><svg width="100%" height="100%" viewBox="0 0 100 100" version="1.1" xmlns="http://www.w3.org/2000/svg" xmlns:xlink="http://www.w3.org/1999/xlink" xml:space="preserve" xmlns:serif="http://www.serif.com/" style="fill-rule:evenodd;clip-rule:evenodd;stroke-linejoin:round;stroke-miterlimit:1.41421;"><rect id="Artboard1" x="0" y="0" width="100" height="100" style="fill:none;"/><g><path d="M75.209,74.778l-14.855,-15.453c3.925,-3.938 6.132,-9.277 6.132,-14.837c0,-11.529 -9.488,-21.017 -21.017,-21.017c-11.53,0 -21.017,9.488 -21.017,21.017c0,11.53 9.487,21.017 21.017,21.017c4.894,0 9.638,-1.709 13.407,-4.832l14.9,15.491c0.19,0.231 0.474,0.365 0.772,0.365c0.549,0 1,-0.452 1,-1c0,-0.287 -0.123,-0.561 -0.339,-0.751Zm-48.717,-30.273c0,-10.423 8.577,-19 19,-19c10.423,0 19,8.577 19,19c0,10.423 -8.577,19 -19,19c-10.418,-0.011 -18.988,-8.581 -19,-19Z" style="fill:#003f5b;fill-rule:nonzero;"/></g></svg>