<?xml version="1.0" encoding="utf-8"?>
<!-- Generator: Adobe Illustrator 23.0.2, SVG Export Plug-In . SVG Version: 6.00 Build 0)  -->
<svg version="1.1" id="Layer_1" xmlns="http://www.w3.org/2000/svg" xmlns:xlink="http://www.w3.org/1999/xlink" x="0px" y="0px"
	 viewBox="0 0 83 107" style="enable-background:new 0 0 83 107;" xml:space="preserve">
<style type="text/css">
	.st0{fill:none;stroke:#003F5B;stroke-width:3;stroke-linecap:round;stroke-linejoin:round;}
	.st1{fill:#FFFFFF;stroke:#003F5B;stroke-miterlimit:10;}
	.st2{fill:url(#SVGID_1_);stroke:#003F5B;stroke-width:2;stroke-linecap:round;stroke-linejoin:round;}
	.st3{fill:none;stroke:#003F5B;stroke-width:2;stroke-linecap:round;stroke-linejoin:round;}
</style>
<title>icon-easy</title>
<path class="st0" d="M39.1,104.2C13.1,89.7,1.5,54.4,1.5,25.8v-5h5c12.4,0,24.6-5.5,31-14l4-5.3l4,5.3c6.4,8.5,18.6,14,31,14h5v5
	c0,28.6-11.6,64-37.6,78.4l-2.4,1.3L39.1,104.2z"/>
<path class="st1" d="M41.5,9.8c-7.9,10.4-21.9,16-35,16c0,26.2,10.5,60.4,35,74c24.5-13.6,35-47.8,35-74
	C63.4,25.8,49.4,20.2,41.5,9.8z"/>
<linearGradient id="SVGID_1_" gradientUnits="userSpaceOnUse" x1="30.2496" y1="58.5022" x2="52.75" y2="58.5022" gradientTransform="matrix(1 0 0 -1 0 108)">
	<stop  offset="0" style="stop-color:#FCDA61"/>
	<stop  offset="0.25" style="stop-color:#FFF9C9"/>
	<stop  offset="0.62" style="stop-color:#C49432"/>
	<stop  offset="1" style="stop-color:#F4E3A0"/>
</linearGradient>
<path class="st2" d="M52.8,46.7c0-6.2-5-11.3-11.2-11.3c-6.2,0-11.3,5-11.3,11.2c0,3.1,1.3,6.1,3.5,8.2c1.4,1.3,2.1,3.1,2.1,5v1.7
	c0,1.1,0.9,2,2,2c0,0,0,0,0,0h7.3c1.1,0,2-0.9,2-2c0,0,0,0,0,0v-1.8c0-1.9,0.8-3.6,2.1-4.9C51.5,52.7,52.8,49.8,52.8,46.7z"/>
<line class="st3" x1="37" y1="67.7" x2="46" y2="70.7"/>
<line class="st3" x1="37" y1="72.2" x2="46" y2="75.2"/>
<line class="st3" x1="38.1" y1="77.1" x2="40.4" y2="77.8"/>
<line class="st3" x1="29.3" y1="34.5" x2="25.6" y2="30.8"/>
<line class="st3" x1="29.3" y1="58.9" x2="25.6" y2="62.6"/>
<line class="st3" x1="57.4" y1="30.8" x2="53.7" y2="34.5"/>
<line class="st3" x1="53.7" y1="58.9" x2="57.4" y2="62.6"/>
<line class="st3" x1="41.5" y1="29.4" x2="41.5" y2="24.2"/>
<line class="st3" x1="24.2" y1="46.7" x2="19" y2="46.7"/>
<line class="st3" x1="64" y1="46.7" x2="58.8" y2="46.7"/>
</svg>
