<?xml version="1.0" standalone="no"?>
<!DOCTYPE svg PUBLIC "-//W3C//DTD SVG 20010904//EN"
 "http://www.w3.org/TR/2001/REC-SVG-20010904/DTD/svg10.dtd">
<svg version="1.0" xmlns="http://www.w3.org/2000/svg"
 width="400.000000pt" height="400.000000pt" viewBox="0 0 400.000000 400.000000"
 preserveAspectRatio="xMidYMid meet">
<metadata>
Created by potrace 1.11, written by Peter Selinger 2001-2013
</metadata>
<g transform="translate(0.000000,400.000000) scale(0.100000,-0.100000)"
fill="#000000" stroke="none">
<path d="M1970 3997 c-3 -3 -27 -7 -55 -10 -43 -5 -96 -13 -215 -32 -23 -4
-193 -29 -280 -41 -19 -3 -60 -9 -90 -14 -60 -10 -99 -16 -205 -31 -38 -5 -81
-11 -95 -14 -14 -2 -45 -7 -70 -10 -25 -3 -52 -8 -60 -10 -8 -2 -37 -6 -65
-10 -74 -9 -111 -14 -205 -30 -47 -7 -105 -16 -130 -20 -25 -3 -56 -8 -70 -10
-14 -2 -45 -7 -70 -10 -25 -3 -52 -8 -60 -10 -13 -4 -15 -119 -14 -962 1 -527
4 -971 7 -987 4 -16 9 -50 13 -75 35 -248 142 -501 303 -721 50 -67 206 -232
289 -303 121 -103 418 -318 562 -405 179 -108 266 -156 421 -233 l118 -59 88
42 c527 253 1090 668 1306 962 180 244 290 533 314 826 7 87 10 1907 3 1913
-3 3 -25 7 -50 10 -25 3 -74 10 -110 16 -36 6 -83 13 -105 15 -22 3 -116 17
-210 31 -93 14 -186 28 -205 31 -19 2 -60 9 -90 14 -30 5 -75 12 -100 15 -25
3 -57 8 -71 10 -14 3 -43 7 -65 10 -57 7 -126 17 -149 21 -11 3 -49 9 -85 14
-36 5 -141 21 -235 35 -220 33 -259 37 -265 32z m160 -481 c14 -3 44 -8 67
-11 64 -8 113 -15 168 -25 28 -5 86 -14 130 -20 44 -6 91 -13 105 -15 132 -20
585 -88 619 -92 24 -3 55 -9 70 -12 l26 -7 0 -690 c0 -379 -3 -731 -7 -782
-18 -223 -107 -453 -243 -632 -177 -231 -575 -524 -987 -726 l-77 -38 -53 25
c-297 137 -679 395 -884 596 -179 177 -288 368 -345 602 -31 127 -33 192 -33
945 l-1 700 26 7 c15 3 51 10 80 13 30 4 79 11 109 16 30 5 73 12 95 15 76 9
210 29 260 39 11 2 43 7 70 10 28 4 61 9 75 11 14 2 90 13 170 25 176 26 198
29 230 35 14 3 45 7 69 10 25 3 47 7 49 10 6 6 179 -1 212 -9z"/>
<path d="M1899 3316 c-2 -2 -24 -6 -49 -9 -38 -5 -131 -18 -290 -42 -19 -3
-66 -10 -105 -16 -38 -6 -81 -12 -95 -14 -133 -20 -180 -27 -210 -31 -19 -2
-60 -9 -90 -14 -30 -5 -75 -12 -100 -15 -25 -3 -58 -8 -73 -11 l-28 -6 4 -666
c2 -367 7 -678 9 -692 13 -59 38 -150 50 -180 l14 -33 204 356 c113 196 210
365 215 374 60 106 165 289 191 333 37 64 279 483 316 550 14 25 35 62 48 83
17 28 19 37 8 37 -8 0 -17 -2 -19 -4z"/>
<path d="M2070 3314 c0 -3 47 -88 104 -188 57 -99 113 -197 124 -216 19 -35
180 -314 477 -830 84 -146 163 -283 175 -305 37 -66 103 -180 107 -185 10 -11
48 101 71 210 2 14 7 325 9 692 l4 666 -28 6 c-15 3 -48 8 -73 11 -25 3 -74
11 -110 16 -36 6 -81 13 -100 15 -19 2 -44 6 -55 8 -11 3 -42 8 -70 11 -27 4
-61 8 -75 11 -14 2 -56 9 -95 14 -38 6 -81 12 -95 15 -14 2 -90 13 -170 25
-80 12 -157 23 -172 26 -16 2 -28 1 -28 -2z"/>
<path d="M1921 2437 c-78 -138 -187 -323 -528 -892 l-203 -340 47 -43 c181
-161 420 -319 703 -463 l60 -30 87 44 c125 63 272 149 388 227 135 90 325 245
325 264 0 4 -110 190 -243 414 -280 468 -420 704 -501 850 -32 56 -59 102 -60
102 0 0 -34 -60 -75 -133z"/>
</g>
</svg>
